<?xml version="1.0" standalone="no"?>
<!DOCTYPE svg PUBLIC "-//W3C//DTD SVG 20010904//EN"
 "http://www.w3.org/TR/2001/REC-SVG-20010904/DTD/svg10.dtd">
<svg version="1.0" xmlns="http://www.w3.org/2000/svg"
 width="1115.000000pt" height="2000.000000pt" viewBox="0 0 1115.000000 2000.000000"
 preserveAspectRatio="xMidYMid meet">

<g transform="translate(0.000000,2000.000000) scale(0.100000,-0.100000)"
fill="#000000" stroke="none">
<path d="M5360 19989 c-221 -22 -386 -73 -484 -148 -63 -49 -99 -98 -155 -210
-111 -221 -158 -490 -116 -671 9 -36 34 -120 56 -187 24 -72 38 -131 34 -142
-3 -11 -24 -30 -45 -42 -64 -36 -75 -70 -75 -239 0 -125 3 -156 24 -222 29
-95 71 -147 146 -183 30 -14 55 -27 55 -28 0 -1 13 -69 30 -152 28 -143 30
-163 30 -405 0 -297 3 -286 -106 -368 -89 -67 -212 -130 -344 -177 -221 -78
-397 -175 -515 -285 -58 -54 -64 -57 -127 -63 -74 -7 -298 -57 -398 -89 -242
-77 -436 -250 -569 -508 -61 -117 -170 -420 -262 -730 -60 -199 -84 -243 -202
-369 -161 -172 -245 -324 -357 -646 -101 -290 -150 -372 -346 -576 -189 -198
-432 -527 -524 -710 -22 -42 -95 -217 -163 -390 -137 -345 -207 -513 -299
-712 -83 -181 -127 -288 -218 -527 -106 -281 -176 -450 -253 -615 -81 -172
-108 -271 -148 -540 -26 -176 -31 -229 -26 -325 8 -173 58 -376 104 -426 43
-47 133 -22 168 46 8 16 25 32 37 35 36 11 77 55 88 94 5 20 10 117 10 217 l0
181 37 69 c37 68 38 71 38 180 0 79 4 116 14 127 20 25 32 21 25 -8 -7 -29 12
-240 27 -297 26 -100 165 -128 233 -48 31 38 42 89 66 323 22 222 36 276 93
371 36 60 42 80 45 137 4 60 0 76 -29 140 l-33 71 58 114 c75 150 116 198 249
302 305 239 454 376 631 583 172 200 302 403 382 594 91 215 165 335 361 581
66 83 165 211 220 285 55 74 151 193 213 264 174 201 309 364 357 429 24 32
43 56 43 53 0 -3 5 -41 11 -84 20 -142 86 -325 245 -675 137 -301 219 -494
250 -590 44 -135 44 -257 0 -563 -20 -137 -56 -423 -81 -635 -76 -654 -91
-739 -225 -1351 -49 -223 -115 -541 -147 -705 -54 -285 -57 -306 -55 -441 1
-86 -4 -179 -13 -235 -59 -373 -71 -774 -40 -1333 24 -435 52 -638 135 -975
81 -325 89 -474 40 -710 -18 -84 -34 -202 -39 -280 -8 -119 -14 -149 -49 -250
-176 -507 -173 -498 -198 -655 -43 -276 -40 -1034 6 -1315 11 -69 40 -280 65
-470 103 -796 108 -880 60 -1030 -21 -66 -28 -115 -34 -220 -4 -79 -13 -145
-21 -159 -7 -14 -41 -62 -75 -107 -57 -75 -87 -129 -184 -335 -44 -94 -98
-157 -198 -232 -137 -101 -253 -237 -293 -345 -35 -91 -29 -121 38 -193 169
-184 192 -199 332 -210 52 -4 133 -17 180 -29 166 -43 233 -14 386 165 36 42
73 72 124 100 97 53 111 74 120 174 10 119 41 157 191 244 59 34 115 96 129
144 9 28 9 74 0 183 -25 314 -25 337 5 431 27 81 28 95 36 389 4 168 10 332
14 365 36 360 85 605 184 921 63 200 103 296 168 399 131 210 136 302 46 910
-36 240 -46 340 -47 445 -1 189 8 215 158 436 170 251 250 491 266 799 7 127
21 227 69 489 33 181 70 397 81 480 28 204 41 249 112 390 81 161 112 245 203
550 122 409 133 481 142 898 5 242 9 300 20 310 10 8 20 9 29 2 11 -7 15 -61
19 -274 7 -421 37 -604 160 -965 35 -104 78 -237 95 -295 17 -58 59 -166 94
-240 80 -168 82 -175 101 -340 16 -143 51 -349 90 -540 37 -179 43 -220 65
-453 38 -394 98 -564 316 -884 92 -135 124 -216 124 -312 0 -52 -61 -557 -95
-780 -50 -333 -38 -429 75 -617 67 -109 114 -225 184 -450 63 -205 96 -338
125 -509 18 -108 28 -191 61 -545 13 -133 13 -218 0 -297 -12 -75 -1 -163 35
-266 21 -60 25 -88 24 -186 0 -64 -6 -172 -13 -240 -22 -219 1 -271 164 -371
62 -38 107 -74 119 -93 11 -18 24 -69 30 -116 14 -106 36 -140 116 -182 42
-22 93 -65 170 -144 90 -92 119 -115 159 -129 71 -23 118 -20 204 15 51 20 86
29 105 25 15 -3 40 -9 55 -12 21 -4 53 6 124 40 82 39 101 53 137 101 23 30
59 67 81 81 72 48 74 120 7 249 -37 71 -168 206 -308 317 -108 86 -117 98
-159 203 -45 113 -75 168 -155 286 -96 141 -116 194 -125 339 -5 80 -15 143
-34 205 -20 65 -28 112 -28 170 0 96 77 789 132 1180 53 376 64 563 57 935
-10 489 -38 654 -181 1034 -70 187 -96 291 -96 388 -1 35 -7 99 -15 143 -44
240 -58 348 -58 460 0 107 3 130 31 218 124 387 194 990 196 1682 1 302 -5
384 -50 695 -19 126 -24 200 -21 264 9 172 -12 344 -83 676 -22 101 -49 238
-60 305 -12 66 -43 203 -70 305 -35 131 -66 285 -105 530 -93 580 -104 655
-130 904 -28 274 -38 344 -68 506 -17 89 -21 152 -21 280 0 205 12 255 103
449 37 80 79 173 91 206 13 33 67 157 121 275 53 119 113 260 133 313 39 104
86 284 86 330 0 35 11 34 33 -2 44 -74 144 -198 226 -278 49 -49 117 -128 152
-177 34 -49 119 -157 188 -240 70 -83 160 -200 202 -261 41 -60 113 -157 158
-215 110 -140 166 -233 211 -344 49 -123 117 -252 187 -358 190 -285 410 -519
729 -776 226 -182 295 -250 344 -343 18 -35 44 -84 57 -108 29 -56 29 -68 -3
-144 -23 -53 -26 -72 -22 -139 4 -67 11 -88 56 -180 56 -111 72 -172 72 -277
0 -102 37 -332 58 -361 23 -32 78 -60 117 -60 44 0 91 33 117 82 20 38 23 63
28 196 l5 152 24 -16 c23 -16 23 -20 16 -88 -13 -112 -9 -135 36 -224 l43 -82
-2 -173 c-1 -94 2 -190 7 -211 7 -30 27 -56 83 -108 90 -85 143 -112 185 -97
36 12 42 24 88 176 53 174 63 273 41 398 -10 55 -22 163 -26 240 -9 170 -34
253 -160 530 -45 99 -111 268 -147 375 -39 115 -98 265 -145 365 -124 262
-176 385 -365 860 -96 242 -207 503 -246 580 -123 240 -295 479 -522 725 -112
121 -185 216 -243 315 -43 74 -60 115 -143 340 -103 280 -219 476 -377 633
l-93 92 -63 223 c-120 417 -239 724 -335 866 -114 167 -286 304 -466 368 -87
31 -354 94 -425 100 -73 6 -76 7 -130 58 -127 120 -281 207 -505 285 -179 62
-282 120 -435 242 l-34 27 3 233 c3 354 21 484 78 573 14 22 60 74 103 115 89
87 108 129 117 256 6 92 -11 232 -34 282 -9 19 -31 41 -54 52 -20 11 -40 28
-44 39 -3 10 13 76 35 147 60 186 71 245 71 358 0 173 -49 346 -155 539 -82
151 -176 220 -369 272 -185 50 -439 67 -667 44z m516 -74 c219 -35 356 -103
439 -214 46 -64 130 -273 156 -392 35 -159 18 -343 -49 -519 l-17 -45 -6 70
c-4 39 -7 113 -8 166 -2 153 -57 292 -150 381 -55 52 -79 56 -164 23 -207 -80
-197 -78 -412 -85 -110 -3 -240 -3 -290 1 -94 8 -254 54 -311 90 -65 40 -125
21 -193 -63 -90 -111 -111 -175 -120 -364 -10 -197 -20 -216 -56 -101 -40 134
-47 193 -36 325 17 192 61 332 143 459 124 188 229 245 508 271 158 15 464 14
566 -3z m336 -616 c26 -28 62 -79 79 -114 29 -60 31 -71 45 -281 8 -121 13
-234 10 -253 -7 -46 6 -67 62 -95 26 -13 60 -38 77 -55 26 -28 30 -41 33 -102
5 -79 -21 -244 -48 -304 -23 -52 -55 -81 -108 -95 -61 -16 -78 -37 -85 -106
-14 -132 -60 -201 -211 -318 -248 -192 -383 -255 -525 -243 -86 7 -159 35
-268 103 -148 93 -347 256 -374 306 -6 11 -17 60 -24 110 -15 101 -33 135 -73
144 -89 19 -110 43 -147 170 -20 67 -26 111 -26 179 0 140 26 195 102 215 66
18 65 16 72 257 4 120 11 241 17 268 13 66 63 166 104 210 41 43 62 44 175 10
202 -60 272 -70 491 -69 188 0 213 2 301 26 52 14 129 40 170 56 41 17 81 31
88 31 8 1 37 -22 63 -50z m10 -2191 l3 -503 26 -56 c15 -31 43 -74 62 -96 l36
-39 -162 0 c-113 0 -185 -5 -237 -17 -107 -24 -228 -86 -304 -158 -35 -32 -70
-59 -78 -59 -7 0 -34 21 -58 46 -133 135 -303 193 -569 194 l-135 0 31 33 c43
45 70 104 83 178 6 37 10 253 10 517 0 248 2 452 5 452 3 0 64 -45 137 -100
86 -66 174 -121 254 -162 113 -57 128 -62 204 -66 96 -5 168 8 259 49 78 35
227 134 336 223 44 35 83 65 87 65 4 1 9 -225 10 -501z m198 -214 c79 -51 111
-66 315 -144 83 -31 179 -72 215 -90 75 -38 197 -119 229 -154 l22 -23 -148
-5 c-165 -6 -309 -33 -379 -74 -67 -38 -113 -41 -178 -11 -74 34 -168 124
-195 187 -19 44 -22 71 -24 239 l-2 189 38 -35 c22 -19 70 -54 107 -79z
m-1562 -96 c-3 -175 -5 -197 -25 -233 -40 -75 -150 -170 -224 -194 -32 -10
-42 -8 -112 24 -110 51 -228 76 -392 84 -94 4 -140 10 -140 17 0 21 99 94 195
143 52 27 177 82 278 122 177 70 325 149 382 205 13 13 28 24 33 24 5 0 7 -87
5 -192z m-653 -388 c84 -12 219 -46 252 -63 22 -12 17 -16 -90 -70 -126 -64
-242 -152 -342 -259 -37 -40 -147 -172 -244 -293 -340 -426 -577 -619 -811
-661 -159 -28 -261 -55 -342 -90 l-81 -34 7 42 c4 24 29 108 56 188 26 80 72
219 100 310 29 91 73 212 99 270 126 283 313 471 560 560 88 33 310 83 436 99
97 12 316 13 400 1z m3174 -5 c361 -51 578 -147 749 -330 130 -139 210 -294
302 -585 29 -91 76 -237 105 -325 52 -158 69 -225 59 -225 -3 0 -19 7 -36 16
-57 29 -139 54 -283 83 -78 17 -178 44 -222 60 -218 84 -407 263 -767 721
-202 257 -373 405 -556 481 -30 12 -59 25 -63 29 -11 10 174 69 248 79 99 14
352 12 464 -4z m-2184 -70 c106 -29 180 -71 262 -149 l78 -74 3 -483 c2 -336
0 -502 -8 -544 -38 -194 -221 -426 -441 -555 -126 -75 -316 -132 -498 -150
-204 -21 -397 16 -597 114 -102 51 -116 61 -183 138 -150 171 -336 317 -512
401 -49 23 -87 45 -86 49 1 3 52 41 112 84 177 126 339 297 570 604 102 135
254 292 352 362 219 157 468 231 748 224 89 -3 162 -10 200 -21z m1122 14
c258 -28 485 -129 678 -299 92 -81 175 -175 302 -344 218 -287 363 -435 551
-561 l94 -63 -101 -50 c-162 -80 -264 -154 -396 -287 -66 -66 -136 -138 -156
-161 -46 -52 -203 -134 -325 -169 -220 -64 -539 -47 -761 41 -257 101 -489
329 -566 554 -21 63 -22 79 -25 584 l-3 519 69 68 c151 148 351 200 639 168z
m-3060 -1361 c76 -28 162 -112 188 -183 27 -74 33 -315 11 -427 -32 -160 -92
-248 -479 -696 -64 -73 -172 -207 -243 -298 -137 -179 -199 -236 -299 -273
-231 -87 -444 -7 -502 187 -23 80 -21 290 6 442 48 276 189 636 332 851 165
245 355 357 704 414 110 17 206 12 282 -17z m4918 17 c260 -39 460 -134 594
-281 178 -194 342 -549 427 -919 20 -89 28 -156 31 -260 9 -278 -47 -395 -216
-451 -77 -25 -214 -16 -304 21 -118 48 -173 97 -308 277 -176 233 -264 340
-388 471 -74 79 -141 163 -208 264 l-99 148 -17 115 c-55 366 28 566 253 616
75 17 118 16 235 -1z m-2576 -69 c62 -137 179 -287 292 -373 l50 -38 -118 -5
c-141 -7 -183 -23 -222 -85 l-25 -41 -31 40 c-51 67 -91 81 -227 81 l-117 -1
100 94 c55 52 120 122 144 156 44 62 115 200 115 223 0 26 10 12 39 -51z
m-1933 -248 c77 -79 165 -172 195 -207 30 -36 117 -117 194 -181 222 -184 555
-498 573 -539 34 -76 13 -298 -58 -644 -64 -307 -70 -520 -20 -792 25 -140 25
-257 1 -360 -37 -150 -103 -301 -174 -393 -106 -138 -338 -237 -437 -185 -42
21 -47 45 -26 111 8 26 22 128 31 227 21 239 31 315 63 475 22 112 26 162 26
295 0 271 -35 395 -229 795 -135 281 -186 400 -238 565 -42 133 -54 189 -66
322 -8 84 -7 112 7 160 18 63 23 315 10 431 -4 34 -4 62 0 62 4 0 71 -64 148
-142z m3953 -8 c-8 -149 1 -298 22 -359 25 -71 -10 -294 -75 -488 -47 -138
-92 -243 -221 -519 -183 -387 -213 -470 -236 -649 -14 -113 -9 -189 41 -535
42 -297 56 -415 65 -555 3 -49 8 -114 12 -142 l5 -53 -63 0 c-176 1 -330 82
-431 229 -43 61 -105 209 -136 321 -33 124 -35 274 -4 442 52 287 35 552 -57
872 -29 100 -46 262 -43 406 2 64 33 134 89 199 21 25 181 170 357 324 176
154 334 299 350 321 33 47 323 342 329 336 2 -3 0 -70 -4 -150z m-2179 -238
c19 -11 49 -41 67 -67 54 -82 75 -82 127 0 56 87 117 101 316 70 242 -36 492
-147 552 -243 30 -49 27 -120 -10 -212 -56 -141 -69 -275 -43 -452 13 -91 13
-93 -25 -418 -10 -79 -18 -296 -24 -590 -10 -561 -38 -874 -106 -1160 -76
-324 -237 -646 -447 -896 -224 -267 -307 -277 -501 -55 -239 271 -392 564
-486 927 -74 285 -89 453 -120 1364 -6 157 -17 364 -26 460 -19 201 -22 344
-10 515 l9 120 -42 120 c-94 272 -38 361 299 465 226 70 400 89 470 52z
m-1202 -108 c46 -9 137 -14 244 -14 l170 0 -16 -22 c-47 -65 -66 -122 -66
-203 0 -44 7 -104 15 -134 l14 -54 -27 25 c-15 13 -121 109 -237 213 -115 103
-221 199 -235 212 l-25 24 45 -16 c25 -9 78 -23 118 -31z m2802 22 c-14 -13
-101 -92 -195 -176 -93 -84 -201 -183 -239 -219 -55 -53 -67 -61 -62 -41 25
95 37 171 32 209 -6 47 -47 145 -72 172 -14 16 -1 17 193 21 191 4 214 7 283
30 41 14 77 26 80 27 2 1 -7 -10 -20 -23z m-5178 -840 c-3 -145 -1 -196 12
-238 43 -150 178 -250 355 -265 59 -5 188 17 260 45 8 3 -11 -24 -41 -60 -111
-130 -190 -264 -257 -433 -89 -223 -232 -433 -479 -701 -125 -136 -239 -238
-447 -400 -170 -132 -223 -184 -292 -291 -30 -45 -66 -91 -82 -102 -105 -75
-255 -30 -325 99 -26 47 -28 59 -23 119 4 53 17 92 65 196 76 167 149 342 317
764 157 396 208 508 303 669 127 214 247 368 482 620 83 89 152 162 153 162 1
0 0 -83 -1 -184z m7555 42 c449 -496 529 -628 821 -1358 181 -451 239 -589
321 -764 72 -152 70 -191 -16 -308 -43 -59 -100 -87 -190 -94 -92 -7 -108 4
-163 104 -60 111 -143 200 -292 313 -179 137 -307 249 -443 391 -218 226 -426
518 -491 687 -70 183 -144 312 -263 460 -28 35 -50 65 -49 67 2 1 35 -7 73
-18 100 -29 239 -29 318 1 112 44 189 126 225 240 14 45 17 91 16 234 -1 97 2
177 6 177 4 0 61 -60 127 -132z m-2903 -435 c9 -27 26 -127 37 -223 26 -214
22 -354 -16 -555 -43 -225 -27 -374 62 -597 74 -185 179 -307 330 -379 l84
-41 -108 -60 c-164 -91 -248 -153 -358 -263 -199 -199 -341 -460 -425 -780
-78 -296 -128 -443 -206 -598 -113 -225 -213 -317 -345 -317 -113 0 -194 66
-296 239 -94 159 -143 284 -217 553 -94 339 -181 547 -297 712 -121 169 -368
380 -560 477 -33 16 -59 31 -59 32 0 2 35 21 78 43 56 28 100 62 163 124 74
72 93 99 133 181 61 127 106 300 113 439 4 86 0 135 -22 265 -42 244 -35 459
20 704 9 40 19 71 21 69 15 -15 27 -198 34 -528 8 -377 35 -803 65 -1018 67
-482 294 -964 604 -1280 84 -86 140 -115 222 -115 78 0 139 32 222 117 157
161 271 324 377 541 137 279 213 567 255 977 17 167 35 607 35 874 0 198 20
454 35 454 1 0 10 -21 19 -47z m-2356 -1888 c177 -88 285 -165 405 -287 85
-87 202 -249 253 -350 53 -105 98 -233 170 -483 107 -370 163 -502 296 -697
50 -73 67 -90 114 -114 84 -42 88 -57 86 -254 -5 -398 -63 -761 -171 -1072
-80 -230 -152 -425 -182 -488 l-31 -65 -18 57 c-23 73 -54 126 -135 228 -134
168 -198 311 -274 611 -106 415 -153 684 -191 1104 -23 259 -27 287 -75 545
-19 102 -46 264 -60 360 -48 320 -74 414 -171 619 -66 137 -152 277 -198 320
-73 68 9 53 182 -34z m3021 56 c-234 -328 -304 -497 -359 -866 -12 -77 -43
-257 -70 -400 -54 -290 -80 -477 -110 -795 -11 -118 -27 -256 -35 -306 -45
-277 -153 -719 -214 -875 -57 -146 -146 -292 -229 -377 -63 -64 -71 -77 -87
-139 -29 -118 -29 -117 -68 -33 -45 96 -187 504 -238 685 -50 176 -85 366 -99
530 -13 162 -13 510 0 535 5 10 30 28 54 40 105 51 227 234 326 490 11 30 57
178 101 329 90 308 136 429 220 569 128 215 291 379 500 504 96 56 259 128
293 128 26 0 27 -2 15 -19z m85 -78 c7 -45 54 -325 112 -658 14 -82 50 -246
80 -364 30 -118 73 -318 95 -445 22 -127 49 -271 61 -321 15 -68 22 -146 28
-315 5 -140 16 -274 29 -355 44 -283 64 -691 42 -880 -6 -49 -15 -208 -21
-353 -17 -451 -64 -752 -173 -1112 -27 -89 -38 -111 -73 -147 -53 -52 -123
-71 -203 -54 -71 15 -122 14 -148 -4 -23 -16 -59 -97 -123 -275 -22 -63 -50
-129 -62 -147 -102 -148 -350 -60 -491 175 -108 178 -155 324 -218 672 -72
396 -89 512 -95 630 -10 189 21 281 135 404 143 154 206 294 299 661 99 390
140 629 172 1000 22 264 22 259 55 430 14 66 40 233 60 370 66 462 109 625
226 855 63 123 174 280 198 280 5 0 12 -21 15 -47z m-3277 -60 c161 -236 225
-407 278 -743 14 -91 46 -275 71 -410 60 -324 70 -395 94 -655 33 -363 61
-533 150 -915 89 -386 211 -659 363 -814 61 -62 72 -86 87 -195 16 -106 8
-240 -24 -431 -14 -80 -35 -208 -46 -285 -53 -352 -143 -627 -263 -798 -95
-136 -272 -223 -380 -188 -66 22 -100 76 -169 269 -34 97 -73 188 -85 202 -21
25 -24 25 -165 25 -142 0 -145 0 -180 27 -49 37 -81 107 -122 268 -83 326
-120 576 -141 948 -8 147 -20 348 -26 447 -15 252 4 588 53 920 15 109 19 168
14 265 -6 130 -5 132 48 400 15 74 41 205 57 290 17 85 55 261 85 390 82 350
109 490 148 760 49 337 43 310 70 310 19 0 37 -19 83 -87z m-3469 -16 c57
-101 146 -156 265 -165 67 -5 68 -6 87 -41 31 -63 53 -161 47 -222 -5 -61 -28
-113 -76 -172 -34 -43 -33 -39 -56 -315 -20 -233 -33 -284 -75 -302 -38 -16
-71 -3 -97 37 -15 23 -19 54 -22 195 -3 166 -3 169 -27 185 -21 13 -31 14 -64
4 -41 -12 -55 -35 -221 -359 -79 -154 -97 -293 -63 -473 9 -47 14 -98 10 -112
-7 -31 -46 -60 -69 -51 -16 6 -65 150 -88 259 -16 76 -16 248 0 300 7 22 16
99 21 170 10 168 32 245 135 470 66 145 215 511 215 530 0 8 41 115 45 115 2
0 17 -24 33 -53z m10304 -372 c47 -115 106 -252 132 -304 60 -118 82 -207 96
-374 6 -72 18 -162 26 -199 18 -85 18 -206 -1 -284 -26 -111 -76 -255 -91
-261 -24 -9 -63 24 -69 61 -4 20 0 66 10 111 23 103 17 275 -13 358 -26 72
-69 157 -132 262 -27 44 -54 99 -60 122 -11 45 -48 75 -106 87 -52 11 -59 -8
-59 -163 -1 -145 -14 -215 -46 -250 -44 -47 -115 -8 -129 69 -5 25 -16 131
-24 235 -20 234 -27 263 -75 331 -46 64 -66 136 -58 207 8 61 44 172 60 185 7
5 44 14 82 20 147 24 183 46 258 156 l41 60 37 -109 c20 -61 75 -204 121 -320z
m-10415 -762 c-54 -85 -61 -124 -59 -305 2 -134 -1 -176 -14 -208 -19 -47 -27
-49 -43 -14 -26 58 -35 159 -23 251 18 137 58 245 124 333 l33 45 3 -32 c2
-20 -5 -45 -21 -70z m10403 -48 c64 -130 83 -268 59 -430 -12 -80 -22 -90 -55
-54 -17 19 -19 39 -20 213 -1 204 -3 215 -59 323 -17 33 -25 59 -20 70 6 16 9
15 31 -12 14 -16 42 -66 64 -110z m-3281 -4151 c32 -170 43 -318 28 -362 -5
-12 -23 -29 -40 -38 -65 -33 -96 -66 -157 -165 -136 -221 -232 -266 -432 -203
-198 62 -290 141 -420 360 -125 211 -182 354 -214 536 -25 147 -18 148 64 11
105 -176 171 -233 324 -283 82 -27 135 -22 200 19 68 43 90 80 159 266 74 199
90 221 152 209 23 -4 72 -8 108 -8 54 -1 76 4 125 29 l59 31 6 -116 c4 -63 21
-192 38 -286z m-3804 367 c65 -29 130 -37 194 -21 98 23 105 15 186 -215 66
-186 99 -237 177 -270 75 -31 203 -11 297 47 69 43 139 119 202 223 86 141
101 126 55 -55 -78 -306 -202 -538 -376 -703 -87 -84 -149 -118 -269 -148
-188 -47 -272 -3 -413 217 -63 97 -98 132 -162 164 -31 15 -31 15 -34 109 -2
71 5 134 27 260 25 135 50 342 51 409 0 8 3 12 8 10 4 -2 30 -14 57 -27z m-71
-865 c23 -23 61 -75 86 -116 61 -103 160 -202 224 -223 105 -36 262 -10 416
68 27 14 52 25 55 25 3 0 5 -39 5 -87 0 -122 16 -282 51 -523 16 -113 36 -254
45 -315 21 -149 15 -336 -14 -425 -12 -36 -48 -110 -82 -165 -33 -55 -73 -134
-90 -176 -44 -113 -144 -458 -173 -594 -62 -292 -100 -683 -95 -990 l3 -210
-30 -65 c-27 -60 -30 -73 -30 -185 0 -66 6 -190 14 -276 12 -130 12 -161 1
-188 -17 -42 -79 -95 -178 -154 -104 -62 -123 -87 -133 -187 -11 -115 -31
-146 -124 -193 -47 -24 -81 -56 -182 -175 -77 -90 -148 -103 -270 -48 -48 22
-70 27 -95 21 -112 -25 -196 11 -331 140 l-89 84 7 41 c17 102 79 182 234 304
122 96 239 254 382 516 150 276 161 302 169 404 4 50 18 134 30 186 32 130 33
389 1 640 -12 96 -24 198 -27 225 -3 28 -27 205 -54 395 -69 481 -70 502 -70
971 0 524 13 649 92 899 48 151 139 393 155 411 20 24 50 13 97 -35z m3956 -5
c33 -66 109 -289 145 -423 78 -299 86 -408 75 -973 -7 -413 -10 -462 -34 -600
-14 -83 -35 -231 -46 -330 -12 -99 -36 -290 -55 -425 -18 -135 -37 -312 -40
-395 -7 -142 -5 -158 23 -300 17 -82 33 -190 35 -240 7 -118 32 -183 123 -317
79 -116 133 -216 171 -318 34 -91 42 -101 151 -187 258 -203 391 -393 325
-465 -9 -10 -22 -18 -30 -18 -7 0 -18 -10 -24 -23 -16 -32 -108 -107 -171
-139 -75 -38 -112 -44 -157 -23 -38 17 -38 16 -100 -16 -117 -62 -211 -48
-283 42 -76 96 -135 152 -192 182 -77 41 -106 82 -106 150 0 106 -47 179 -147
231 -65 33 -129 80 -149 111 -31 47 -34 97 -19 257 25 254 19 345 -27 453 -19
46 -21 66 -19 260 4 542 -74 1019 -242 1480 -46 124 -79 197 -189 405 -36 70
-51 163 -43 265 3 44 26 222 50 395 53 380 65 491 65 622 0 76 3 99 13 95 6
-3 48 -21 93 -40 115 -50 210 -71 292 -65 122 9 184 56 298 229 64 97 95 134
127 153 47 29 57 25 87 -33z"/>
<path d="M5551 14156 c-6 -8 -14 -67 -18 -132 -6 -107 -9 -121 -30 -142 -22
-22 -29 -23 -96 -17 -90 9 -279 -9 -375 -35 -78 -21 -180 -69 -200 -93 -16
-18 -5 -47 17 -47 10 0 42 13 72 29 108 58 298 93 434 79 94 -9 138 -3 183 25
l34 20 36 -21 c33 -18 60 -21 227 -25 166 -3 200 -7 272 -29 45 -14 100 -37
122 -52 48 -34 75 -31 79 7 3 25 -2 30 -60 56 -146 66 -301 94 -492 89 -143
-4 -146 -1 -146 157 0 90 -3 117 -16 129 -19 20 -28 20 -43 2z"/>
<path d="M5152 13736 c-133 -24 -170 -43 -141 -72 14 -14 25 -13 116 5 110 23
226 27 286 10 56 -15 96 -56 117 -119 14 -42 24 -56 41 -58 27 -5 39 13 39 58
0 49 20 73 82 100 77 34 186 37 317 10 96 -19 106 -20 120 -5 15 15 14 18 -5
34 -33 26 -203 54 -309 50 -78 -3 -100 -9 -156 -36 -37 -18 -76 -33 -87 -33
-11 0 -48 13 -83 30 -62 29 -150 51 -193 49 -11 -1 -76 -11 -144 -23z"/>
<path d="M5545 13348 c-2 -7 -5 -63 -7 -124 -3 -95 -6 -115 -23 -134 -56 -62
-180 -91 -423 -99 -147 -5 -185 -9 -192 -21 -12 -18 -12 -22 -1 -38 7 -11 43
-12 202 -3 227 13 307 28 401 76 l69 35 61 -31 c98 -50 189 -67 405 -79 121
-7 200 -7 206 -1 5 5 7 17 5 27 -4 25 -52 33 -203 34 -190 1 -366 42 -412 95
-21 24 -23 36 -23 135 0 59 -3 115 -6 124 -7 19 -53 21 -59 4z"/>
<path d="M5135 12883 c-95 -14 -120 -28 -109 -57 6 -17 14 -18 73 -10 36 5
140 9 229 9 l164 0 25 -29 c20 -24 24 -38 23 -80 -4 -78 -4 -78 33 -74 31 3
32 4 35 58 3 83 9 98 44 116 38 20 228 22 358 4 92 -13 110 -9 110 19 0 23 -4
24 -140 46 -132 21 -241 19 -334 -5 l-77 -21 -66 21 c-78 24 -226 25 -368 3z"/>
<path d="M5545 12458 c-2 -7 -5 -63 -7 -125 -2 -92 -6 -116 -21 -130 -16 -16
-48 -19 -320 -24 -166 -3 -303 -6 -303 -7 -11 -15 -12 -37 -3 -48 9 -11 66
-14 291 -14 261 0 283 1 328 21 46 20 49 20 96 4 40 -14 100 -18 341 -22 277
-4 292 -3 302 14 24 45 11 48 -309 53 -284 5 -302 6 -316 24 -10 14 -14 50
-14 124 0 57 -5 112 -10 123 -12 21 -48 26 -55 7z"/>
<path d="M5035 12056 c-15 -11 -18 -19 -10 -31 8 -14 31 -17 125 -20 119 -3
298 -28 331 -45 27 -15 39 -43 52 -122 8 -46 18 -75 29 -82 29 -18 43 9 48 92
5 72 7 77 36 97 40 27 190 53 354 62 116 6 120 7 120 28 0 33 -22 37 -145 30
-155 -9 -238 -22 -327 -51 l-77 -25 -73 24 c-87 30 -173 44 -328 52 -95 6
-118 4 -135 -9z"/>
<path d="M5553 11613 c-10 -4 -13 -126 -13 -564 0 -509 1 -560 16 -566 9 -3
24 -2 33 4 14 9 16 66 19 556 2 486 0 547 -14 561 -16 17 -21 18 -41 9z"/>
</g>
</svg>
