<?xml version="1.0" encoding="utf-8"?>
<!-- Generator: Adobe Illustrator 16.0.0, SVG Export Plug-In . SVG Version: 6.00 Build 0)  -->
<!DOCTYPE svg PUBLIC "-//W3C//DTD SVG 1.1//EN" "http://www.w3.org/Graphics/SVG/1.1/DTD/svg11.dtd">
<svg version="1.1" id="Layer_1" xmlns="http://www.w3.org/2000/svg" xmlns:xlink="http://www.w3.org/1999/xlink" x="0px" y="0px"
	 width="952.641px" height="1770px" viewBox="0 0 952.641 1770" enable-background="new 0 0 952.641 1770" xml:space="preserve">
<radialGradient id="SVGID_1_" cx="1253.667" cy="758.978" r="2345.9316" gradientTransform="matrix(0.5834 0 0 -0.5826 221.2507 1372.8191)" gradientUnits="userSpaceOnUse">
	<stop  offset="0.4031" style="stop-color:#FFFFFF"/>
	<stop  offset="1" style="stop-color:#E6E7E7"/>
</radialGradient>
<rect x="-45.635" y="-67.637" display="none" fill="url(#SVGID_1_)" width="1996.55" height="1996.55"/>
<g>
	<g>
		<path fill="#076599" d="M936.339,855.868c-1.16-4.888-13.513-12.257-24.403-18.76c-9.698-5.79-19.73-11.777-25-17.423
			c-12.167-13.021-30.248-14.481-30.429-14.494l-0.696-0.048l-0.492-0.506c-34.646-36.121-46.663-75.394-57.272-110.041
			c-2.672-8.73-5.192-16.975-7.995-24.907c-14.14-40.175-32.25-62.5-44.228-77.278c-7.448-9.176-12.371-15.25-12.509-21.035
			c-1.361-57.006-15.063-97.857-21.65-117.493c-2.447-7.307-3.931-11.719-3.931-14.097c0-3.526,0.167-13.773,0.359-25.488
			c0.265-15.834,0.552-33.771,0.552-42.117c0-13.894-14.322-39.971-34.883-55.17c-14.954-11.046-40.451-15.58-59.072-18.889
			c-7.199-1.287-13.43-2.388-17.979-3.657c-15.718-4.361-56.746-37.142-57.953-44.395c-0.446-2.651-0.683-12.151-0.809-22.91
			c-8.818,5.954-23.4,12.656-27.344,13.439c-4.773,0.958-19.903,5.352-26.563,6.14l-0.003,0.169c-0.234,0-0.615-0.069-0.901-0.082
			c-0.279,0.013-0.667,0.082-0.897,0.082v-0.169c-6.664-0.788-21.793-5.181-26.568-6.14c-3.438-0.685-14.991-5.882-23.731-11.161
			c-0.132,9.801-0.365,18.177-0.771,20.631c-1.132,6.759-45.362,39.886-61.608,44.395c-4.559,1.269-10.781,2.37-17.987,3.657
			c-18.612,3.31-44.113,7.843-59.07,18.889c-20.557,15.2-34.885,41.276-34.885,55.17c0,8.346,0.293,26.282,0.556,42.117
			c0.189,11.714,0.363,21.961,0.363,25.488c0,2.377-1.485,6.79-3.935,14.097c-6.585,19.636-20.293,60.487-21.649,117.493
			c-0.134,5.785-5.057,11.859-12.509,21.035c-11.982,14.777-30.086,37.104-44.232,77.277c-2.794,7.934-5.317,16.178-7.99,24.908
			c-10.607,34.647-22.631,73.92-57.273,110.041l-0.486,0.506l-0.7,0.048c-0.182,0.013-18.303,1.508-30.433,14.494
			c-5.267,5.646-15.299,11.633-25.001,17.423c-10.889,6.503-23.242,13.873-24.404,18.76c-0.16,0.675-0.073,1.229,0.282,1.789
			c3.665,5.761,6.179,8.192,14.728,7.389c9.046-0.868,34.059-14.589,37.406-18.357c0,0-1.058,2.243-4.49,7.666
			c-0.603,1.884-7.5,23.293-11.862,34.193l-1.046,2.607c-4.798,11.957-17.55,43.722-17.55,50.613c0,3.314,2.036,5.518,4.041,5.984
			c2.329,0.521,9.594-2.964,9.594-2.964c-0.033,0.104-3.066,10.651-3.599,15.014c-0.273,2.247,0.421,4.324,1.956,5.845
			c1.792,1.763,4.499,2.574,7.406,2.168c4.625-0.608,8.982-11.564,9.928-14.735c0,0-1.828,13.81,1.979,15.319
			c5.55,2.203,8.606-1.025,9.682-2.56c6.115-8.737,15.098-31.22,16.028-34.472l0.401-1.135
			c3.534-12.189,10.982-22.536,10.982-22.536c-1.708,4.563-12.862,41.82-12.702,45.188c0.288,0.92,0.839,1.673,1.594,2.018
			c0.832,0.396,1.972,0.327,3.198-0.199c2.437-1.045,10.989-14.789,13.797-19.306l0.906-1.447
			c2.027-3.25,13.152-28.643,14.907-33.457l0.789-2.155c2.601-7.021,10.516-28.398,10.516-34.223c0-7.456,12.117-44.3,13.44-46.952
			c4.356-8.707,24.058-33.099,46.877-61.349c25.51-31.582,54.434-67.391,63.701-83.976c14.076-25.188,17.555-49.811,19.231-61.651
			c0.243-1.74,0.459-3.232,0.659-4.446c0.337-2.041,2.08-5.146,4.974-10.293c5.9-10.507,15.782-28.102,23.854-54.792
			c8.745-28.938,8.079-42.178,7.979-27.364l0.252,1.515c0.444,14.641,28.329,71.963,38.733,89.705
			c3.622,6.18,1.141,79.164-1.027,87.846c-0.732,2.941-2.725,9.301-5.239,17.347c-5.646,18.094-14.193,45.431-14.193,52.855
			c0,10.014-7.086,77.609-8.621,82.193c-1.257,5.535-5.208,141.333-4.784,165.033c0.952,53.019,10.164,109.257,18.159,130.953
			c8.6,23.341,10.923,50.592,11.077,56.612c0.191,7.525,2.298,16.426,3.839,22.925c0.955,4.023,1.643,6.934,1.643,8.485
			c0,1.117-0.928,6.19-3.027,17.578c-4.636,25.112-13.272,71.872-12.203,84.899c4.682,57.102,15.747,88.575,24.638,113.865
			c2.574,7.337,5.006,14.254,6.968,20.973c8.724,29.926,24.434,111.565,24.434,121.098c0,1.546,0.018,3.294,0.027,5.162
			c0.126,13.841,0.039,23.851-2.314,26.497c-5.953,5.41-5.452,19.188-3.972,22.384l0.149,0.505c0.771,5.41-4.174,14.856-11.5,21.973
			c-3.794,3.696-6.187,9.242-8.711,15.111c-4.614,10.721-9.849,22.868-25.245,30.593c-1.048,0.521-1.769,1.663-2.126,3.396
			c-0.847,4.064,0.628,9.924,2.409,12.069c4.523,2.646,78.539,4.461,90.619,0.649c9.645-3.055,9.87-27.633,7.289-40.541
			c-2.476-12.367-5.518-34.395-5.518-39.939l0.166-0.757c2.794-6.156,1.974-18.335-1.841-27.14l-0.184-0.405l0.036-0.453
			c0.144-2.007,0.369-8.837,0.69-18.289c1.023-30.111,2.932-86.162,5.763-96.559c3.512-12.875,15.209-93.204,11.511-138.837
			c-0.462-5.599-6.224-38.929-11.804-71.155c-5.205-30.08-10.126-58.501-10.426-62.693c-0.229-3.213-0.15-7.059-0.051-11.944
			c0.105-5,0.234-11.226,0.047-18.745c0-2.578,1.852-15.483,5.125-38.069c4.585-31.646,10.863-74.971,10.863-86.219
			c0-11.69,5.455-56.923,9.438-89.938c2.204-18.247,4.109-34.008,4.109-36.128c0-4.323,8.788-45.593,8.788-45.593
			s8.914,41.479,8.914,45.593c0,2.12,1.908,17.881,4.108,36.128c3.986,33.017,9.443,78.248,9.443,89.938
			c0,11.248,6.272,54.57,10.858,86.219c3.276,22.586,5.121,35.491,5.121,38.026c-0.182,7.563-0.055,13.788,0.045,18.788
			c0.102,4.887,0.18,8.731-0.045,11.944c-0.305,4.192-5.216,32.613-10.427,62.693c-5.58,32.228-11.344,65.558-11.798,71.155
			c-3.703,45.633,7.999,125.962,11.51,138.837c2.833,10.396,4.735,66.446,5.759,96.559c0.32,9.452,0.55,16.282,0.69,18.289
			l0.036,0.453l-0.18,0.405c-3.814,8.805-4.639,20.982-1.844,27.14l0.166,0.757c0,5.546-3.044,27.572-5.514,39.939
			c-2.583,12.908-2.359,37.486,7.284,40.541c12.083,3.814,86.096,2,90.812-0.836c1.589-1.959,3.066-7.818,2.216-11.884
			c-0.36-1.732-1.072-2.876-2.121-3.396c-15.404-7.725-20.633-19.872-25.247-30.594c-2.527-5.868-4.919-11.414-8.714-15.11
			c-7.329-7.115-12.271-16.563-11.497-21.974l0.151-0.504c1.477-3.196,1.978-16.974-3.835-22.239
			c-2.496-2.791-2.586-12.801-2.457-26.642c0.015-1.868,0.029-3.617,0.029-5.162c0-9.531,15.709-91.172,24.432-121.098
			c1.962-6.719,4.396-13.636,6.971-20.973c8.888-25.29,19.956-56.765,24.635-113.865c1.066-13.027-7.563-59.787-12.203-84.899
			c-2.097-11.388-3.027-16.461-3.027-17.578c0-1.553,0.69-4.462,1.643-8.485c1.544-6.499,3.646-15.398,3.839-22.926
			c0.159-6.021,2.479-33.271,11.074-56.611c7.999-21.696,17.21-77.936,18.162-130.953c0.424-23.7-3.526-159.498-4.806-165.112
			c-1.513-4.505-8.6-72.101-8.6-82.114c0-7.425-8.542-34.763-14.197-52.855c-2.511-8.046-4.497-14.405-5.231-17.346
			c-2.172-8.684-4.649-81.667-1.027-87.847c10.398-17.741,37.638-76.152,38.082-90.792l0.043-0.451
			c-0.085-14.803-0.764-1.549,7.985,27.388c8.069,26.69,17.953,44.286,23.854,54.792c2.889,5.146,4.639,8.252,4.978,10.293
			c0.202,1.214,0.415,2.706,0.659,4.447c1.67,11.84,5.157,36.461,19.228,61.65c9.273,16.585,38.186,52.394,63.705,83.977
			c22.813,28.249,42.517,52.641,46.878,61.348c1.314,2.651,13.433,39.496,13.433,46.952c0,5.823,7.917,27.2,10.518,34.223
			l0.791,2.155c1.754,4.815,12.882,30.208,14.909,33.457l0.901,1.447c2.813,4.517,11.359,18.261,13.794,19.306
			c1.231,0.526,2.37,0.596,3.196,0.199c0.76-0.344,1.309-1.097,1.643-2.228c0.12-3.157-11.041-40.417-12.748-44.979l5.362,6.668
			c1.722,5.893,6.022,17.003,6.022,17.003c0.929,3.252,9.915,25.733,16.029,34.472c1.08,1.533,3.894,4.045,9.682,2.56
			c3.208-0.819,2.599-13.594,2.599-13.594c0.948,3.181,4.682,12.4,9.307,13.01c2.92,0.407,5.614-0.405,7.407-2.168
			c1.535-1.521,2.229-3.598,1.953-5.845c-0.533-4.361-3.565-14.908-3.595-15.014c0,0,7.253,3.485,9.599,2.964
			c1.998-0.468,4.033-2.67,4.033-5.983c0-6.894-12.752-38.657-17.553-50.614l-1.048-2.607c-4.358-10.899-11.255-32.31-11.86-34.192
			c-3.493-2.15-4.484-7.666-4.484-7.666c3.346,3.768,28.358,17.488,37.405,18.356c8.545,0.819,11.06-1.628,14.726-7.389
			C936.414,857.098,936.501,856.543,936.339,855.868z"/>
		<g>
			<path fill="#3FBCE8" d="M820.458,813.164c-3.332,1.68-2.527,24.755-2.409,32.841c0.123,8.084,12.688,55.419,24.364,53.587
				c11.672-1.844,16.156-10.343,18.391-15.209s16.671-13.757,18.89-18.272c2.208-4.521-20.355-40.075-24.365-42.63
				c-3.998-2.56-6.526-11.759-13.441-14.027C839.081,808.532,822.442,812.153,820.458,813.164z"/>
			<path fill="#3FBCE8" d="M857.171,816.084c-0.433-2.933,5.156-5.129,7.158-4.19c1.991,0.944,33.471,19.128,36.709,21.761
				c10.101,8.225,32.516,15.996,31.13,20.578c-3.177,10.481-28.971,3.358-39.991-5.714
				C881.149,839.457,858.341,823.951,857.171,816.084z"/>
			<path fill="#3FBCE8" d="M886.607,873.059c-2.549,0.417-7.27,1.521-6.681,7.275c0.563,5.763,20.751,53.183,25.343,57.85
				c4.589,4.693,7.557-0.767,6.101-8.736C909.923,921.458,889.5,872.602,886.607,873.059z"/>
			<path fill="#3FBCE8" d="M873.06,885.455c-2.074,1.747-4.718,4.952-6.108,8.751c-1.4,3.803,23.963,65.584,27.756,67.006
				c3.829,1.382,6.969-1.917,6.734-7.638C901.225,947.85,875.361,883.515,873.06,885.455z"/>
			<path fill="#3FBCE8" d="M860.776,897.991c-2.979,1.181-5.294,3.475-5.599,7.02c-0.301,3.54,17.002,55.352,25.336,53.938
				c8.327-1.44-0.362-16.465-1.506-19.776C877.863,935.867,862.26,897.409,860.776,897.991z"/>
			<path fill="#3FBCE8" d="M837.442,905.598c-0.476-2.976,7.599,2.794,9.133,5.783c1.53,2.997,12.528,31.483,10.059,32.27
				C847.84,946.46,839.527,918.625,837.442,905.598z"/>
			<path fill="#3FBCE8" d="M632.04,314.109c17.492,0.729,33.525,0,53.929,18.213c12.974,11.583,18.951,51.012,13.122,81.626
				C691.068,384.794,666.292,338.156,632.04,314.109z"/>
			<path fill="#3FBCE8" d="M599.983,319.965c31.335,4.373,85.27,61.948,89.646,101.3C645.9,420.537,601.438,358.594,599.983,319.965
				z"/>
			<path fill="#3FBCE8" d="M492.655,350.533c3.829-2.625,34.303-34.678,77.552-14.821c41.643,19.114,63.618,91.457,63.083,93.113
				c-0.728,2.249-72.129,43.242-107.112,43.242c-20.42,0-35.715-11.255-35.715-17.257
				C490.462,448.81,488.279,353.535,492.655,350.533z"/>
			<path fill="#3FBCE8" d="M473.417,350.533c-3.829-2.625-34.303-34.678-77.548-14.821c-41.646,19.114-63.618,91.457-63.08,93.113
				c0.727,2.249,72.124,43.242,107.105,43.242c20.425,0,35.713-11.255,35.713-17.257
				C475.607,448.81,477.796,353.535,473.417,350.533z"/>
			<path fill="#3FBCE8" d="M652.484,427.585c5.716-1.148,31.546,2.669,42.013,11.282c29.937,24.649,27.405,78.417,27.405,92.269
				c0,13.848,10.996,44.863-7.954,44.863c-18.943,0-61.464-65.339-65.837-85.019C643.736,471.31,637.909,430.497,652.484,427.585z"
				/>
			<path fill="#3FBCE8" d="M709.08,598.94c-0.537,0.081-1.092,0.003-1.622-0.234c-25.007-11.421-45.87-38.23-53.721-48.33
				l-1.297-1.656c-1-1.263-4.53-16.552-3.267-17.542c1.253-1.005,3.098-0.778,4.095,0.482l1.307,1.689
				c7.617,9.787,31.603,49.227,55.31,60.057c1.462,0.668,2.114,2.397,1.441,3.854C710.896,598.207,710.033,598.809,709.08,598.94z"
				/>
			<path fill="#3FBCE8" d="M721.903,586.558c3.896,50.53,15.63,54.222,18.245,63.336c5.438,18.997,44.012,68.176,55.154,83.929
				c12.939,18.305,27.071,53.606,31.36,54.32c4.29,0.725-25.043-58.268-27.188-63.834
				C790.495,701.061,771.043,609.991,721.903,586.558z"/>
			<path fill="#3FBCE8" d="M693.888,610.918c4.16-0.126,47.672,49.958,47.183,59.402c-0.501,9.444-20.061-6.588-32.233-13.019
				c-12.182-6.43-18.496-6.818-18.283-10.871C690.77,642.385,687.921,611.097,693.888,610.918z"/>
			<path fill="#3FBCE8" d="M725.02,676.794c29.088,2.431,92.688,108.787,93.726,116.83c-12.999-17.17-56.34-65.559-59.902-70.11
				C751.673,714.344,731.098,686.806,725.02,676.794z"/>
			<path fill="#3FBCE8" d="M706.389,674.973c0,0,0.367,0.531,1.044,1.518c0.729,0.937,1.518,2.583,2.929,4.239
				c1.367,1.697,2.944,3.763,4.655,6.133c1.636,2.388,4.044,4.918,6.197,7.896c4.322,6.009,9.992,12.431,15.504,19.821
				c2.638,3.82,5.791,7.333,8.684,11.238c3.015,3.77,5.893,7.833,9.111,11.489c6.608,7.113,12.753,14.896,19.379,21.054
				c3.26,3.161,6.419,6.211,9.398,9.103c3,2.884,5.706,5.835,8.572,7.975c11.172,9.129,20.239,17.915,20.239,17.915
				c0.176,0.113,0.227,0.364,0.141,0.56c-0.104,0.179-1.325-0.104-0.5,0.134c0,0-9.497-8.144-21.311-16.303
				c-3.043-1.915-5.945-4.618-9.176-7.26c-3.169-2.712-6.533-5.568-9.999-8.522c-7.032-5.814-13.612-13.236-20.71-20.042
				c-3.507-3.454-6.677-7.299-9.991-10.879c-3.229-3.67-6.539-7.144-9.384-10.912c-5.622-7.561-10.621-14.839-14.435-21.495
				c-3.878-6.469-6.846-12.53-8.636-16.676c-1.738-4.132-2.359-6.651-2.359-6.651c-0.055-0.221,0.063-0.445,0.242-0.498
				C706.134,674.754,706.298,674.844,706.389,674.973z"/>
			<path fill="#3FBCE8" d="M537.524,274.333c9.781,0,56.848,26.966,61.95,32.066c5.104,5.103-29.148,6.558-32.065,6.558
				c-2.913,0-26.241-20.403-29.885-26.233C533.884,280.889,532.425,274.333,537.524,274.333z"/>
			<path fill="#3FBCE8" d="M528.781,296.944c2.788,5.572,14.579,17.491,8.017,20.409c-6.559,2.912-17.489,2.185-17.489-0.73
				S527.322,294.033,528.781,296.944z"/>
			<path fill="#3FBCE8" d="M499.404,482.505c-8.787,1.402-1.455,29.147-0.729,32.795c0.729,3.64,47.372,3.64,55.385,18.219
				c8.025,14.574,2.193-16.04,2.193-21.865C556.255,505.821,535.846,476.672,499.404,482.505z"/>
			<path fill="#3FBCE8" d="M497.218,534.976c-4.26,1,0,36.44,2.918,48.1c0.788,3.159,50.285-3.645,53.927,6.559
				c3.648-10.203,4.375-18.218,4.375-24.045C558.438,559.751,534.389,526.233,497.218,534.976z"/>
			<path fill="#3FBCE8" d="M498.677,606.392c-3.612,3.615-1.459,46.645-0.727,49.56c0.727,2.912,16.757-6.555,24.046-7.283
				c7.292-0.732,32.066,1.456,34.986-2.92c2.915-4.371,4.369-26.964-1.458-34.252C549.689,604.212,512.523,592.543,498.677,606.392z
				"/>
			<path fill="#3FBCE8" d="M521.996,667.608c-6.638,5.308-18.216,9.476-20.409,19.679c-2.183,10.203-3.637,108.589-3.637,115.88
				c0,7.285,5.1,13.849,13.847,13.849c8.74,0,17.492-21.872,21.133-33.527c3.649-11.664,11.666-46.646,13.12-56.844
				c1.459-10.205,13.116-57.574,6.56-61.947C546.049,660.321,529.289,661.782,521.996,667.608z"/>
			<path fill="#3FBCE8" d="M570.431,639.917c-0.524,8.721-4.57,96.925-6.289,104.211c-1.706,7.294,1.719,12.387,5.72,11.661
				c4.001-0.729,23.802-5.667,24.936-13.688c1.149-8.01-1.256-57.148-1.256-66.628c0-9.472,0.58-55.359-2.28-57.549
				C588.401,615.736,571.002,630.444,570.431,639.917z"/>
			<path fill="#3FBCE8" d="M580.899,576.566c0,0-2.186,23.321,0.728,26.238c2.92,2.918,22.599-13.848,24.053-18.219
				c1.459-4.371,11.204-42.159,5.374-34.876C605.227,557,600.581,569.283,580.899,576.566z"/>
			<path fill="#3FBCE8" d="M583.95,532.787c-0.728,5.835-3.648,24.777,0,25.504c3.641,0.733,21.875-25.283,24.062-31.109
				c2.189-5.832,0.969-10.594-1.219-9.134C604.608,519.504,584.677,526.96,583.95,532.787z"/>
			<path fill="#3FBCE8" d="M578.775,497.641c-1.949,3.917-5.764,23.485,2.988,22.028c8.74-1.461,27.615-22.392,26.558-29.03
				C607.104,483.022,580.237,494.729,578.775,497.641z"/>
			<path fill="#3FBCE8" d="M566.671,469.181c-4.202,4.13,3.706,18.955,8.485,17.533c4.23-1.254,36.208-18.914,34.075-27.438
				C607.395,451.944,567.614,468.254,566.671,469.181z"/>
			<path fill="#3FBCE8" d="M636.944,440.7c-7.919,9.44-20.405,46.283-20.405,53.286c0,5.832-1.124,54.857,4.265,49.025
				c7.497-8.109,11.858-26.083,12.789-42.631C634.974,475.926,634.813,461.708,636.944,440.7z"/>
			<path fill="#3FBCE8" d="M387.636,576.566c0,0,2.188,23.321-0.727,26.238c-2.914,2.918-22.595-13.848-24.056-18.219
				c-1.457-4.371-11.202-42.159-5.372-34.876C363.313,557,367.958,569.283,387.636,576.566z"/>
			<path fill="#3FBCE8" d="M384.585,532.787c0.735,5.835,3.652,24.777,0,25.504c-3.64,0.733-21.869-25.283-24.056-31.109
				c-2.19-5.832-0.971-10.594,1.217-9.134C363.936,519.504,383.858,526.96,384.585,532.787z"/>
			<path fill="#3FBCE8" d="M389.757,497.641c1.956,3.917,5.768,23.485-2.977,22.028c-8.745-1.461-27.616-22.392-26.561-29.03
				C361.439,483.022,388.303,494.729,389.757,497.641z"/>
			<path fill="#3FBCE8" d="M401.865,469.181c4.21,4.13-3.701,18.955-8.48,17.533c-4.231-1.254-36.205-18.914-34.074-27.438
				C361.142,451.944,400.918,468.254,401.865,469.181z"/>
			<path fill="#3FBCE8" d="M331.6,440.7c7.912,9.44,20.397,46.283,20.397,53.286c0,5.832,1.128,54.857-4.26,49.025
				c-7.499-8.109-11.864-26.083-12.792-42.631C333.564,475.926,333.727,461.708,331.6,440.7z"/>
			<path fill="#3FBCE8" d="M491.33,842.719c-2.874,5.94,2.65,90.344,12.425,112.077c9.756,21.733,6.341-16.117,7.692-24.157
				c1.35-8.027,12.834-21.303,7.607-30.71C513.832,890.521,492.04,841.25,491.33,842.719z"/>
			<path fill="#3FBCE8" d="M533.92,808.798c-4.091,4.218-30.777,26.951-30.245,30.838c0.812,5.826,16.627,44.242,22.508,47.808
				c5.871,3.564,4.736-22.465,10.302-36.748c5.947-15.263,41.389-77.022,41.364-79.092
				C577.832,770.021,549.785,792.466,533.92,808.798z"/>
			<path fill="#3FBCE8" d="M594.459,764.999c5.963,64.789-75.532,223.174-84.05,289.985
				C505.844,860.922,581.412,826.621,594.459,764.999z"/>
			<path fill="#3FBCE8" d="M565.223,916.906c8.215-17.026,46.115-150.567,47.052-146.426
				c33.35,147.991-40.934,293.813-45.048,312.824c-4.125,18.997-1.709,75.57-2.367,80.682c-0.667,5.119-9.418,4.489-12.396,0.162
				C549.496,1159.819,528.403,993.177,565.223,916.906z"/>
			<path fill="#3FBCE8" d="M624.148,894.267c-8.668,55.692-40.211,170.796-44.896,193.154c-4.133,19.69-3.698,58.935-3.56,69.133
				c0.132,10.203,2.416,17.454,6.061,17.408c1.908-0.021,32.315-75.923,36.456-101.104
				C635.254,1020.839,628.213,945.589,624.148,894.267z"/>
			<path fill="#3FBCE8" d="M533.614,999.09c5.787-3.398,0.378,74.204,1.237,84.395c0.868,10.191,17.201,98.453-2.514,95.805
				c-19.716-2.659-17.121-64.007-17.361-82.219C514.743,1078.846,528.55,1002.077,533.614,999.09z"/>
			<path fill="#3FBCE8" d="M522.564,1289.331c-2.55,2.604-20.743,81.351-20.523,95.651c0.677,45.292,26.049,153.623,26.185,163.828
				c0.139,10.192,7.558-32.256,8.161-41.741C536.987,1497.587,555.477,1357.948,522.564,1289.331z"/>
			<path fill="#3FBCE8" d="M603.747,1303.989c0,0-1.351,74.521-4.869,84.036c-3.518,9.535-33.19,120.438-34.556,127.016
				c-1.375,6.577-18.168,59.278-19.037,49.082c-0.868-10.189,9.043-32.914,10.397-40.225c1.361-7.308,16.169-100.07,18.224-110.297
				C575.955,1403.37,603.747,1303.989,603.747,1303.989z"/>
			<path fill="#3FBCE8" d="M551.056,1605.357c4.325-0.629,5.353,18.879,5.459,26.884c0.104,8.024,8.296,21.034,3.993,26.192
				c-4.302,5.162-16.461,12.304-23.629,21.144c-7.173,8.84-17.142,26.466-17.953,19.915c-0.824-6.549-3.388-34.942,0.166-42.279
				C522.637,1649.883,534.323,1607.762,551.056,1605.357z"/>
			<path fill="#3FBCE8" d="M566.592,1670.007c2.866,5.528,32.21,40.451,32.286,46.281c0.078,5.837-39.479,7.252-43.854,7.311
				c-4.376,0.054-4.61-0.116-8.41-11.731c-3.799-11.611-3.962-23.995-1.079-26.956
				C548.404,1681.961,565.104,1667.118,566.592,1670.007z"/>
			<path fill="#3FBCE8" d="M534.064,1691.729c-3.839,0.822-10.747,13.989-10.692,18.369c0.061,4.362-1.25,11.924,2.391,11.863
				c3.642-0.046,14.621,3.453,15.255-3.839C541.648,1710.825,541.335,1690.177,534.064,1691.729z"/>
			<path fill="#3FBCE8" d="M525.643,1587.859c2.486-1.506,10.561-8.311,15.051-11.034c4.487-2.723,9.098,9.135,5.334,11.893
				c-3.761,2.77-20.471,35.61-22.079,39.188C522.342,1631.48,521.146,1590.589,525.643,1587.859z"/>
			<path fill="#3FBCE8" d="M336.408,314.109c-17.494,0.729-33.524,0-53.93,18.213c-12.972,11.583-18.95,51.012-13.119,81.626
				C277.374,384.794,302.157,338.156,336.408,314.109z"/>
			<path fill="#3FBCE8" d="M368.458,319.965c-31.332,4.373-85.266,61.948-89.637,101.3
				C322.553,420.537,367.005,358.594,368.458,319.965z"/>
			<path fill="#3FBCE8" d="M469.042,482.505c8.788,1.402,1.458,29.147,0.73,32.795c-0.73,3.64-47.372,3.64-55.39,18.219
				c-8.021,14.574-2.192-16.04-2.192-21.865C412.19,505.821,432.599,476.672,469.042,482.505z"/>
			<path fill="#3FBCE8" d="M471.228,534.976c4.257,1,0,36.44-2.913,48.1c-0.797,3.159-50.291-3.645-53.932,6.559
				c-3.646-10.203-4.375-18.218-4.375-24.045C410.007,559.751,434.063,526.233,471.228,534.976z"/>
			<path fill="#3FBCE8" d="M469.772,606.392c3.608,3.615,1.455,46.645,0.728,49.56c-0.728,2.912-16.765-6.555-24.058-7.283
				c-7.286-0.732-32.061,1.456-34.979-2.92c-2.914-4.371-4.37-26.964,1.457-34.252C418.752,604.212,455.925,592.543,469.772,606.392
				z"/>
			<path fill="#3FBCE8" d="M446.442,667.608c6.648,5.308,18.223,9.476,20.413,19.679c2.187,10.203,3.645,108.589,3.645,115.88
				c0,7.285-5.108,13.849-13.848,13.849c-8.747,0-17.495-21.872-21.14-33.527c-3.641-11.664-11.657-46.646-13.112-56.844
				c-1.455-10.205-13.12-57.574-6.562-61.947C422.4,660.321,439.157,661.782,446.442,667.608z"/>
			<path fill="#3FBCE8" d="M527.315,1184.313c1.04,48.813,27.429,77.291,19.865,132.854
				C547.208,1284.363,512.326,1267.725,527.315,1184.313z"/>
			<path fill="#3FBCE8" d="M598.661,1157.494c1.563-6.374-7.07,67.417-6.889,74.022c0.183,6.598-20.896,12.423-26.498,19.731
				c-0.739-5.354,3.806-19.424,4.956-24.451C571.381,1221.78,590.915,1189.032,598.661,1157.494z"/>
			<path fill="#3FBCE8" d="M538.839,1198.279c-0.122-9.26,7.829-12.279,16.686-12.401c8.849-0.11,15.255,2.716,15.378,11.972
				c0.1,7.775-16.48,47.885-19.451,43.548c-2.737-3.982-8.744-23.303-10.352-33.188
				C539.708,1204.711,538.876,1201.171,538.839,1198.279z"/>
			<path fill="#3FBCE8" d="M146.992,813.164c3.33,1.68,2.533,24.755,2.409,32.841c-0.121,8.084-12.686,55.419-24.361,53.587
				c-11.673-1.844-16.157-10.343-18.397-15.209c-2.232-4.866-16.667-13.757-18.883-18.272c-2.213-4.521,20.348-40.075,24.363-42.63
				c3.994-2.56,6.523-11.759,13.437-14.027C128.373,808.532,145.01,812.153,146.992,813.164z"/>
			<path fill="#3FBCE8" d="M110.273,816.084c0.432-2.933-5.157-5.129-7.16-4.19c-1.99,0.944-33.471,19.128-36.706,21.761
				c-10.103,8.225-32.516,15.996-31.129,20.578c3.17,10.481,28.964,3.358,39.988-5.714
				C86.295,839.457,109.107,823.951,110.273,816.084z"/>
			<path fill="#3FBCE8" d="M80.841,873.059c2.55,0.417,7.266,1.521,6.68,7.275c-0.563,5.763-20.751,53.183-25.345,57.85
				c-4.587,4.693-7.558-0.767-6.105-8.736C57.525,921.458,77.947,872.602,80.841,873.059z"/>
			<path fill="#3FBCE8" d="M94.391,885.455c2.073,1.747,4.712,4.952,6.109,8.751c1.394,3.803-23.971,65.584-27.763,67.006
				c-3.825,1.382-6.965-1.917-6.73-7.638C66.223,947.85,92.086,883.515,94.391,885.455z"/>
			<path fill="#3FBCE8" d="M106.667,897.991c2.985,1.181,5.298,3.475,5.601,7.02c0.309,3.54-17.002,55.352-25.34,53.938
				c-8.324-1.44,0.367-16.465,1.518-19.776C89.587,935.867,105.188,897.409,106.667,897.991z"/>
			<path fill="#3FBCE8" d="M130.01,905.598c0.474-2.976-7.605,2.794-9.135,5.783c-1.533,2.997-12.533,31.483-10.063,32.27
				C119.606,946.46,127.922,918.625,130.01,905.598z"/>
			<path fill="#3FBCE8" d="M314.962,427.585c-5.716-1.148-31.548,2.669-42.007,11.282c-29.938,24.649-27.412,78.417-27.412,92.269
				c0,13.848-10.996,44.863,7.949,44.863c18.957,0,61.469-65.339,65.845-85.019C323.706,471.31,329.536,430.497,314.962,427.585z"/>
			<path fill="#3FBCE8" d="M258.372,598.94c0.537,0.081,1.092,0.003,1.612-0.234c25.015-11.421,45.876-38.23,53.731-48.33
				l1.292-1.656c1-1.263,4.531-16.552,3.272-17.542c-1.258-1.005-3.104-0.778-4.097,0.482l-1.318,1.689
				c-7.607,9.787-31.591,49.227-55.301,60.057c-1.461,0.668-2.111,2.397-1.444,3.854
				C256.552,598.207,257.418,598.809,258.372,598.94z"/>
			<path fill="#3FBCE8" d="M245.543,586.558c-3.896,50.53-15.627,54.222-18.246,63.336c-5.432,18.997-44.011,68.176-55.151,83.929
				c-12.939,18.305-27.069,53.606-31.36,54.32c-4.287,0.725,25.037-58.268,27.189-63.834
				C176.953,701.061,196.408,609.991,245.543,586.558z"/>
			<path fill="#3FBCE8" d="M273.561,610.918c-4.16-0.126-47.675,49.958-47.185,59.402c0.5,9.444,20.063-6.588,32.238-13.019
				c12.18-6.43,18.491-6.818,18.285-10.871C276.681,642.385,279.53,611.097,273.561,610.918z"/>
			<path fill="#3FBCE8" d="M242.434,676.794c-29.094,2.431-92.695,108.787-93.727,116.83c12.998-17.17,56.336-65.559,59.896-70.11
				C215.78,714.344,236.354,686.806,242.434,676.794z"/>
			<path fill="#3FBCE8" d="M261.057,674.973c0,0-0.363,0.531-1.038,1.518c-0.737,0.937-1.517,2.583-2.93,4.239
				c-1.369,1.697-2.947,3.763-4.663,6.133c-1.636,2.388-4.047,4.918-6.194,7.896c-4.324,6.009-9.993,12.431-15.502,19.821
				c-2.639,3.82-5.796,7.333-8.686,11.238c-3.012,3.77-5.89,7.833-9.113,11.489c-6.606,7.113-12.749,14.896-19.375,21.054
				c-3.259,3.161-6.415,6.211-9.4,9.103c-3.002,2.884-5.704,5.835-8.573,7.975c-11.169,9.129-20.24,17.915-20.24,17.915
				c-0.174,0.113-0.229,0.364-0.138,0.56c0.099,0.179,1.324-0.104,0.499,0.134c0,0,9.497-8.144,21.308-16.303
				c3.053-1.915,5.951-4.618,9.174-7.26c3.174-2.712,6.535-5.568,10.002-8.522c7.032-5.814,13.617-13.236,20.705-20.042
				c3.52-3.454,6.681-7.299,9.99-10.879c3.241-3.67,6.551-7.144,9.386-10.912c5.632-7.561,10.632-14.839,14.444-21.495
				c3.878-6.469,6.846-12.53,8.636-16.676c1.741-4.132,2.36-6.651,2.36-6.651c0.052-0.221-0.061-0.445-0.252-0.498
				C261.313,674.754,261.152,674.844,261.057,674.973z"/>
			<path fill="#3FBCE8" d="M397.022,639.917c0.518,8.721,4.563,96.925,6.28,104.211c1.714,7.294-1.718,12.387-5.713,11.661
				c-4.001-0.729-23.8-5.667-24.946-13.688c-1.142-8.01,1.258-57.148,1.258-66.628c0-9.472-0.573-55.359,2.282-57.549
				C379.043,615.736,396.445,630.444,397.022,639.917z"/>
			<path fill="#3FBCE8" d="M476.121,842.719c2.871,5.94-2.661,90.344-12.42,112.077c-9.771,21.733-6.346-16.117-7.701-24.157
				c-1.35-8.027-12.834-21.303-7.608-30.71C453.624,890.521,475.408,841.25,476.121,842.719z"/>
			<path fill="#3FBCE8" d="M433.524,808.798c4.1,4.218,30.776,26.951,30.244,30.838c-0.811,5.826-16.624,44.242-22.502,47.808
				c-5.881,3.564-4.735-22.465-10.308-36.748c-5.948-15.263-41.393-77.022-41.357-79.092
				C389.621,770.021,417.668,792.466,433.524,808.798z"/>
			<path fill="#3FBCE8" d="M372.986,764.999c-5.96,64.789,75.53,223.174,84.056,289.985
				C461.604,860.922,386.041,826.621,372.986,764.999z"/>
			<path fill="#3FBCE8" d="M402.229,916.906c-8.215-17.026-46.114-150.567-47.051-146.426
				c-33.352,147.991,40.93,293.813,45.046,312.824c4.127,18.997,1.71,75.57,2.37,80.682c0.655,5.119,9.413,4.489,12.388,0.162
				C417.952,1159.819,439.049,993.177,402.229,916.906z"/>
			<path fill="#3FBCE8" d="M343.296,894.267c8.668,55.692,40.217,170.796,44.902,193.154c4.134,19.69,3.691,58.935,3.563,69.133
				c-0.138,10.203-2.417,17.454-6.063,17.408c-1.913-0.021-32.313-75.923-36.46-101.104
				C332.194,1020.839,339.234,945.589,343.296,894.267z"/>
			<path fill="#3FBCE8" d="M433.837,999.09c-5.794-3.398-0.382,74.204-1.245,84.395c-0.865,10.191-17.193,98.453,2.518,95.805
				c19.713-2.659,17.124-64.007,17.357-82.219C452.708,1078.846,438.898,1002.077,433.837,999.09z"/>
			<path fill="#3FBCE8" d="M444.884,1289.331c2.546,2.604,20.74,81.351,20.526,95.651c-0.684,45.292-26.057,153.623-26.188,163.828
				c-0.133,10.192-7.56-32.256-8.156-41.741C430.457,1497.587,411.971,1357.948,444.884,1289.331z"/>
			<path fill="#3FBCE8" d="M363.698,1303.989c0,0,1.356,74.521,4.875,84.036c3.516,9.535,33.188,120.438,34.559,127.016
				c1.369,6.577,18.165,59.278,19.03,49.082c0.861-10.189-9.038-32.914-10.404-40.225c-1.36-7.308-16.162-100.07-18.211-110.297
				C391.49,1403.37,363.698,1303.989,363.698,1303.989z"/>
			<path fill="#3FBCE8" d="M416.393,1605.357c-4.332-0.629-5.354,18.879-5.463,26.884c-0.107,8.024-8.293,21.034-3.988,26.192
				c4.307,5.162,16.453,12.304,23.632,21.144c7.164,8.84,17.138,26.466,17.953,19.915c0.816-6.549,3.378-34.942-0.166-42.279
				C444.813,1649.883,433.125,1607.762,416.393,1605.357z"/>
			<path fill="#3FBCE8" d="M400.85,1670.007c-2.859,5.528-32.198,40.451-32.275,46.281c-0.079,5.837,39.475,7.252,43.851,7.311
				c4.368,0.054,4.61-0.116,8.41-11.731c3.796-11.611,3.962-23.995,1.084-26.956C419.047,1681.961,402.348,1667.118,400.85,1670.007
				z"/>
			<path fill="#3FBCE8" d="M433.389,1691.729c3.835,0.822,10.742,13.989,10.692,18.369c-0.063,4.362,1.245,11.924-2.394,11.863
				c-3.641-0.046-14.625,3.453-15.255-3.839C425.796,1710.825,426.12,1690.177,433.389,1691.729z"/>
			<path fill="#3FBCE8" d="M441.808,1587.859c-2.495-1.506-10.563-8.311-15.05-11.034c-4.498-2.723-9.104,9.135-5.337,11.893
				c3.763,2.77,20.466,35.61,22.084,39.188C445.106,1631.48,446.298,1590.589,441.808,1587.859z"/>
			<path fill="#3FBCE8" d="M440.137,1184.313c-1.041,48.813-27.436,77.291-19.87,132.854
				C420.243,1284.363,455.125,1267.725,440.137,1184.313z"/>
			<path fill="#3FBCE8" d="M368.79,1157.494c-1.569-6.374,7.063,67.417,6.879,74.022c-0.18,6.598,20.899,12.423,26.504,19.731
				c0.739-5.354-3.806-19.424-4.954-24.451C396.067,1221.78,376.526,1189.032,368.79,1157.494z"/>
			<path fill="#3FBCE8" d="M428.613,1198.279c0.122-9.26-7.833-12.279-16.689-12.401c-8.854-0.11-15.255,2.716-15.378,11.972
				c-0.1,7.775,16.478,47.885,19.456,43.548c2.733-3.982,8.736-23.303,10.352-33.188
				C427.74,1204.711,428.569,1201.171,428.613,1198.279z"/>
			<path fill="#3FBCE8" d="M425.526,274.333c-9.774,0-56.846,26.966-61.943,32.066c-5.104,5.103,29.149,6.558,32.066,6.558
				c2.914,0,26.238-20.403,29.877-26.233C429.175,280.889,430.637,274.333,425.526,274.333z"/>
			<path fill="#3FBCE8" d="M434.278,296.944c-2.787,5.572-14.582,17.491-8.025,20.409c6.563,2.912,17.496,2.185,17.496-0.73
				S435.735,294.033,434.278,296.944z"/>
			<path fill="#3FBCE8" d="M528.19,238.659c4.372,0,1.479,27.68,0.75,32.778c-0.729,5.1-32.794,64.131-34.984,68.506
				s-5.833-26.236-2.19-32.066C495.41,302.043,525.276,238.659,528.19,238.659z"/>
			<path fill="#3FBCE8" d="M438.095,238.659c-4.376,0-1.477,27.68-0.75,32.778c0.728,5.1,32.798,64.131,34.984,68.506
				c2.188,4.375,5.833-26.236,2.188-32.066C470.874,302.043,441.012,238.659,438.095,238.659z"/>
			<path fill="#3FBCE8" d="M500.514,252.737c-13.848,3.031-30.332,0.625-31.386,0.367c-7.358-1.849,15.555,57.322,15.555,57.322
				l0.173-0.93l0.107,0.566C484.963,310.063,507.442,251.215,500.514,252.737z"/>
			<path fill="#3FBCE8" d="M556.832,139.182c0.976-6.348,1.79-12.975,2.117-19.415c1.048-21.013-6.306-44.126-10.509-52.525
				c-4.202-8.406-21.014-32.577-40.976-39.934c-10.148-3.739-18.107-3.665-24.325-2.848c-6.214-0.817-14.171-0.891-24.312,2.848
				c-19.973,7.356-36.774,31.527-40.988,39.934c-4.202,8.399-11.556,31.512-10.504,52.525c0.349,6.958,1.274,14.134,2.352,20.935
				c-4.66,0.974-12.202,5.229-10.963,8.778c1.686,4.882,12.128,44.242,15.748,38.745c0.433-0.658,0.742-1.819,0.958-3.331
				c1.182,13.525,3.623,32.315,6.613,36.799c4.202,6.301,28.378,17.863,33.628,18.907c4.775,0.958,19.904,5.352,26.568,6.14v0.169
				c0.231,0,0.619-0.069,0.897-0.082c0.286,0.013,0.667,0.082,0.901,0.082l0.003-0.169c6.659-0.788,21.79-5.181,26.563-6.14
				c5.263-1.044,29.429-12.606,33.631-18.907c3.067-4.595,5.563-24.258,6.697-37.839c0.213,1.248,0.498,2.218,0.876,2.794
				c3.619,5.495,14.063-33.861,15.748-38.741C568.773,144.412,561.51,140.252,556.832,139.182z"/>
			<path fill="#3FBCE8" d="M372.226,1255.415c-4.542,12.325-2.282,61.917,6.821,89.739c9.109,27.813,22.938,84.118,27.071,102.396
				c4.135,18.271,21.832,112.532,23.178,120.57c1.353,8.032,8.623,9.577,8.028-0.628c-0.595-10.207-14.586-54.129-15.18-64.343
				c-0.596-10.207-9.69-106.687-16.34-138.877C398.052,1326.713,374.373,1249.571,372.226,1255.415z"/>
			<path fill="#3FBCE8" d="M595.88,1255.415c4.542,12.325,2.28,61.917-6.824,89.739c-9.109,27.813-22.938,84.118-27.067,102.396
				c-4.13,18.271-21.831,112.532-23.186,120.57c-1.348,8.032-8.613,9.577-8.024-0.628c0.594-10.207,14.585-54.129,15.183-64.343
				c0.591-10.207,9.689-106.687,16.336-138.877C570.059,1326.713,593.732,1249.571,595.88,1255.415z"/>
		</g>
	</g>
	<g display="none">
		<path display="inline" fill="#0B4A7B" d="M1433.011,156h-17.146c-26.306,1.009-38.715,30.74-44.756,50.646
			c-0.031,16.542-0.209,39.103-0.93,43.425c-1.127,6.764-45.356,39.881-61.606,44.4c-4.554,1.264-10.779,2.365-17.989,3.652
			c-18.61,3.307-44.105,7.838-59.061,18.894c-20.561,15.195-34.891,41.271-34.891,55.166c0,8.339,0.295,26.282,0.557,42.117
			c0.188,11.714,0.36,21.961,0.36,25.488c0,2.384-1.483,6.793-3.931,14.094c-6.59,19.64-20.297,60.49-21.653,117.496
			c-0.138,5.79-5.062,11.859-12.509,21.038c-11.979,14.775-30.085,37.1-44.229,77.274c-2.793,7.938-5.32,16.177-7.99,24.907
			c-10.608,34.652-22.63,73.915-57.276,110.035l-0.488,0.514l-0.689,0.047c-0.188,0.013-18.312,1.503-30.437,14.502
			c-5.271,5.645-15.303,11.625-25.001,17.415c-10.895,6.503-23.249,13.873-24.408,18.76c-0.156,0.675-0.071,1.229,0.285,1.789
			c3.668,5.761,6.179,8.189,14.727,7.382c9.047-0.861,34.058-14.582,37.409-18.35c0,0-1.063,2.242-4.488,7.666
			c-0.609,1.883-7.504,23.293-11.863,34.192l-1.048,2.607c-4.802,11.957-17.55,43.722-17.55,50.614c0,3.313,2.034,5.517,4.042,5.983
			c2.325,0.521,9.591-2.964,9.591-2.964c-0.036,0.104-3.07,10.651-3.604,15.014c-0.266,2.247,0.426,4.324,1.959,5.845
			c1.791,1.763,4.503,2.575,7.405,2.168c4.624-0.608,8.98-11.564,9.925-14.735c0,0-1.821,13.811,1.983,15.319
			c5.552,2.204,8.604-1.025,9.684-2.56c6.114-8.737,15.096-31.22,16.028-34.472l0.402-1.135
			c3.524-12.189,10.978-22.536,10.978-22.536c-1.707,4.563-12.862,41.821-12.702,45.188c0.288,0.921,0.839,1.674,1.595,2.018
			c0.833,0.396,1.972,0.327,3.204-0.199c2.433-1.045,10.981-14.789,13.789-19.306l0.906-1.447
			c2.024-3.25,13.153-28.642,14.906-33.457l0.793-2.155c2.601-7.021,10.519-28.398,10.519-34.223c0-7.456,12.111-44.3,13.44-46.952
			c4.354-8.707,24.06-33.099,46.871-61.348c25.513-31.588,54.434-67.389,63.7-83.977c14.072-25.187,17.552-49.814,19.229-61.65
			c0.252-1.741,0.465-3.237,0.661-4.447c0.344-2.041,2.087-5.146,4.976-10.29c5.896-10.509,15.784-28.104,23.854-54.795
			c8.745-28.938,8.073-42.177,7.982-27.364l0.252,1.515c0.438,14.641,28.325,71.964,38.722,89.702
			c3.63,6.183,1.149,79.167-1.02,87.85c-0.732,2.945-2.723,9.3-5.233,17.343c-5.656,18.094-14.199,45.435-14.199,52.865
			c0,10.008-7.087,77.604-8.62,82.188c-1.255,5.54-5.205,141.333-4.779,165.033c0.943,53.019,10.164,109.257,18.159,130.953
			c8.6,23.341,10.925,50.592,11.074,56.612c0.188,7.525,2.293,16.426,3.842,22.925c0.946,4.023,1.642,6.934,1.642,8.485
			c0,1.117-0.934,6.19-3.035,17.578c-4.632,25.112-13.266,71.872-12.197,84.899c4.68,57.102,15.744,88.575,24.634,113.865
			c2.577,7.337,5.009,14.254,6.975,20.973c8.725,29.926,24.431,111.565,24.431,121.098c0,1.546,0.013,3.294,0.033,5.162
			c0.124,13.841,0.036,23.851-2.322,26.497c-5.956,5.41-5.448,19.188-3.975,22.384l0.15,0.505c0.776,5.41-4.17,14.856-11.492,21.973
			c-3.8,3.696-6.188,9.242-8.709,15.111c-4.618,10.721-9.854,22.868-25.246,30.593c-1.054,0.521-1.771,1.663-2.131,3.396
			c-0.849,4.064,0.627,9.924,2.414,12.069c4.521,2.646,78.534,4.461,90.616,0.649c9.64-3.055,9.866-27.633,7.289-40.541
			c-2.479-12.367-5.521-34.395-5.521-39.939l0.171-0.757c2.794-6.156,1.965-18.335-1.848-27.14l-0.178-0.405l0.036-0.453
			c0.134-2.007,0.37-8.837,0.691-18.289c1.021-30.111,2.918-86.162,5.755-96.559c3.512-12.875,15.214-93.204,11.513-138.837
			c-0.458-5.599-6.223-38.929-11.805-71.155c-5.204-30.08-10.125-58.501-10.423-62.693c-0.229-3.213-0.146-7.059-0.053-11.944
			c0.104-5,0.232-11.226,0.046-18.745c0-2.578,1.854-15.483,5.126-38.069c4.582-31.646,10.861-74.971,10.861-86.219
			c0-11.69,5.454-56.923,9.438-89.938c2.205-18.247,4.107-34.008,4.107-36.128c0-4.323,8.788-45.593,8.788-45.593
			s8.919,41.479,8.919,45.593c0,2.12,1.902,17.881,4.101,36.128c3.99,33.017,9.443,78.248,9.443,89.938
			c0,11.248,6.278,54.57,10.86,86.219c3.275,22.586,5.127,35.491,5.127,38.026c-0.186,7.563-0.058,13.788,0.046,18.788
			c0.101,4.887,0.177,8.731-0.05,11.944c-0.299,4.192-5.219,32.613-10.426,62.693c-5.574,32.228-11.344,65.558-11.798,71.155
			c-3.701,45.633,7.998,125.962,11.509,138.837c2.831,10.396,4.736,66.446,5.756,96.559c0.323,9.452,0.551,16.282,0.697,18.289
			l0.033,0.453l-0.186,0.405c-3.812,8.805-4.634,20.982-1.837,27.14l0.16,0.757c0,5.546-3.039,27.572-5.516,39.939
			c-2.581,12.908-2.355,37.486,7.287,40.541c12.087,3.814,86.101,2,90.813-0.836c1.586-1.959,3.063-7.818,2.215-11.884
			c-0.354-1.732-1.073-2.876-2.123-3.396c-15.402-7.725-20.625-19.872-25.243-30.594c-2.524-5.868-4.918-11.414-8.715-15.11
			c-7.323-7.115-12.271-16.563-11.494-21.974l0.15-0.504c1.475-3.196,1.979-16.974-3.832-22.239
			c-2.496-2.791-2.594-12.801-2.457-26.642c0.011-1.868,0.03-3.617,0.03-5.162c0-9.531,15.706-91.172,24.431-121.098
			c1.959-6.719,4.394-13.636,6.967-20.973c8.895-25.29,19.953-56.765,24.639-113.865c1.066-13.027-7.565-59.787-12.2-84.899
			c-2.101-11.388-3.026-16.461-3.026-17.578c0-1.553,0.686-4.462,1.639-8.485c1.537-6.499,3.646-15.398,3.842-22.926
			c0.15-6.021,2.473-33.271,11.073-56.611c7.999-21.696,17.21-77.936,18.155-130.953c0.419-23.7-3.523-159.493-4.799-165.112
			c-1.514-4.505-8.598-72.101-8.598-82.108c0-7.431-8.543-34.771-14.205-52.865c-2.507-8.042-4.494-14.396-5.229-17.343
			c-2.168-8.684-4.647-81.667-1.028-87.85c10.399-17.737,37.638-76.143,38.087-90.789l0.036-0.451
			c-0.089-14.8-0.757-1.549,7.985,27.388c8.076,26.69,17.951,44.286,23.852,54.795c2.895,5.144,4.641,8.249,4.98,10.29
			c0.199,1.21,0.416,2.706,0.658,4.446c1.678,11.836,5.152,36.465,19.232,61.651c9.264,16.588,38.185,52.388,63.701,83.977
			c22.815,28.249,42.517,52.641,46.877,61.348c1.318,2.651,13.438,39.496,13.438,46.952c0,5.823,7.913,27.2,10.518,34.223
			l0.787,2.155c1.756,4.815,12.879,30.208,14.905,33.457l0.907,1.447c2.811,4.517,11.359,18.261,13.792,19.306
			c1.235,0.526,2.372,0.596,3.204,0.199c0.753-0.344,1.304-1.098,1.635-2.228c0.117-3.157-11.036-40.417-12.748-44.979l5.364,6.668
			c1.717,5.893,6.018,17.003,6.018,17.003c0.935,3.252,9.914,25.732,16.032,34.472c1.075,1.533,3.892,4.045,9.68,2.56
			c3.218-0.819,2.606-13.595,2.606-13.595c0.942,3.182,4.681,12.401,9.299,13.011c2.922,0.406,5.618-0.405,7.412-2.168
			c1.53-1.521,2.228-3.598,1.953-5.845c-0.531-4.361-3.567-14.908-3.599-15.014c0,0,7.254,3.485,9.592,2.964
			c2.009-0.468,4.045-2.67,4.045-5.983c0-6.894-12.754-38.657-17.557-50.614l-1.045-2.607c-4.354-10.899-11.254-32.31-11.863-34.192
			c-3.498-2.15-4.483-7.666-4.483-7.666c3.345,3.768,28.357,17.488,37.405,18.35c8.548,0.821,11.061-1.621,14.726-7.382
			c0.356-0.56,0.438-1.114,0.281-1.789c-1.155-4.887-13.511-12.257-24.407-18.76c-9.698-5.79-19.725-11.771-25.001-17.415
			c-12.161-13.035-30.248-14.489-30.425-14.502l-0.702-0.048l-0.487-0.513c-34.645-36.12-46.661-75.383-57.271-110.035
			c-2.679-8.73-5.2-16.97-7.993-24.907c-14.145-40.175-32.25-62.5-44.235-77.274c-7.448-9.179-12.367-15.249-12.508-21.038
			c-1.354-57.006-15.063-97.857-21.646-117.496c-2.453-7.301-3.934-11.71-3.934-14.094c0-3.526,0.171-13.773,0.363-25.488
			c0.259-15.834,0.548-33.777,0.548-42.117c0-13.894-14.324-39.971-34.883-55.166c-14.955-11.056-40.451-15.587-59.068-18.894
			c-7.206-1.287-13.429-2.388-17.985-3.652c-15.712-4.366-56.743-37.146-57.951-44.4c-0.771-4.587-0.921-29.716-0.935-46.393
			C1470.48,183.917,1458.035,156.961,1433.011,156z"/>
		<g display="inline">
			<path fill="#F16735" d="M1438.68,174.217c0,8.749,4.555,44.2,12.631,56.848c11.17,17.491,50.532,53.934,81.139,69.479
				c-16.032,2.912-45.188,3.883-92.803,24.284c-1.944-33.036-5.834-131.179-10.689-147.689
				C1433.813,177.619,1438.68,174.217,1438.68,174.217z"/>
			<path fill="#F16735" d="M1412.646,174.217c0,8.749-4.556,44.2-12.629,56.848c-11.173,17.491-50.526,53.934-81.132,69.479
				c16.033,2.912,45.174,3.883,92.791,24.284c1.946-33.036,5.841-131.179,10.694-147.689
				C1417.52,177.619,1412.646,174.217,1412.646,174.217z"/>
			<path fill="#F16735" d="M1410.217,343.298c-7.774-11.664-82.599-42.272-146.238-27.206c77.246,0.482,58.442,140.2,147.366,181.24
				C1416.201,470.61,1416.742,353.072,1410.217,343.298z"/>
			<path fill="#F16735" d="M1297.498,339.896c-27.202,35.956-77.263,91.341-83.564,92.309c-4.856-1.943-18.948-53.438,6.313-86.479
				C1238.584,321.76,1282.919,327.263,1297.498,339.896z"/>
			<path fill="#F16735" d="M1302.84,355.926c-9.718,0.49-52.474,56.361-48.102,64.618c4.376,8.267,72.88,16.04,80.165,15.55
				C1342.197,435.605,1314.173,355.368,1302.84,355.926z"/>
			<path fill="#F16735" d="M1251.351,414.238c-61.223,51.49-14.574,135.545-27.225,176.357
				C1292.156,525.491,1239.202,443.382,1251.351,414.238z"/>
			<path fill="#F16735" d="M1381.247,742.418c-8.742-17.491-37.966-30.583-55.456-23.291c-17.484,7.286-28.954,49.458-28.231,76.423
				C1304.852,770.77,1333.145,751.161,1381.247,742.418z"/>
			<path fill="#F16735" d="M1414.521,765.71c-11.668-5.835-117.75,0.278-127.227,63.685c-2.185,14.568,7.288,99.112,16.036,99.84
				c1.989-40.3,85.511-31.648,111.188-90.322C1415.976,822.145,1415.976,776.637,1414.521,765.71z"/>
			<path fill="#F16735" d="M1213.689,446.779c-10.933,5.83-35.711,75.796-26.963,131.184
				C1196.2,499.986,1208.587,464.27,1213.689,446.779z"/>
			<path fill="#F16735" d="M1210.775,494.883c-2.188,6.554-18.945,84.535-2.188,80.896
				C1218.79,570.675,1210.775,494.883,1210.775,494.883z"/>
			<path fill="#F16735" d="M1281.377,891.218c-3.043,6.079-2.755,105.255,1.14,114.003c4.864-23.319,18.854-53.635,14.977-63.349
				C1293.604,932.144,1285.262,883.45,1281.377,891.218z"/>
			<path fill="#F16735" d="M1338.381,924.271c-3.291-9.044-34.04,21.867-37.011,33.147c-6.787,25.742-17.59,71.397-4.962,151.094
				c10.723,67.677,7.287,47.729,8.381,98.743c3.277-43.361,14.582-66.461,17.965-78.822
				C1305.32,1090.718,1313.112,970.921,1338.381,924.271z"/>
			<path fill="#F16735" d="M1350.913,908.313c2.272,12.438-49.579,128.855-15.954,224.59c6.797,19.344,24.617,56.188,28.499,58.138
				c-6.839-34.194-1.938-46.504,0-64.983C1372.413,1039.729,1360.038,924.271,1350.913,908.313z"/>
			<path fill="#F16735" d="M1404.391,878.699c-0.97-5.147-39.15,18.562-39.796,27.334c-3.413,46.738,17.982,81.871,22.808,188.11
				C1390.559,1005.005,1425.021,988.117,1404.391,878.699z"/>
			<path fill="#F16735" d="M1375.999,1026.881c-0.743-7.975-6.59,102.507-5.624,112.234c0.974,9.729-1.152,75.207,3.342,66.756
				C1393.104,1169.377,1382.839,1099.844,1375.999,1026.881z"/>
			<path fill="#F16735" d="M1336.377,1169.253c0.704-6.843-11.664-15.562-13.612-11.664c-1.948,3.881-24.29,151.113-24.29,171.511
				c0,20.407,30.117,77.244,33.035,76.267c2.919-0.967,15.545-16.519,14.578-19.439
				C1345.843,1385.179,1326.911,1260.748,1336.377,1169.253z"/>
			<path fill="#F16735" d="M1344.14,1169.253c1.959-8.483,45.658,97.648,49.558,130.7c3.891,33.049,7.777,112.219-3.881,114.161
				c-11.661,1.938-34.017-28.188-34.985-36.929C1354.241,1371.813,1337.556,1197.768,1344.14,1169.253z"/>
			<path fill="#F16735" d="M1377.195,1658.064c0-7.771,17.006,58.299,7.297,64.129c-9.723,5.833-42.271,3.393-53.93,1.458
				c-11.666-1.934,20.399-72.878,20.399-72.878s-13.112,61.218,10.205,62.679
				C1366.982,1713.813,1377.195,1671.657,1377.195,1658.064z"/>
			<path fill="#F16735" d="M1380.526,205.813c0.894-7.152,12.145-22.35,15.05-24.777c2.918-2.422-0.956,42.757-4.848,51.016
				c-3.892,8.26-11.173,18.468-11.657,19.924C1378.584,253.433,1379.557,213.588,1380.526,205.813z"/>
			<path fill="#F16735" d="M1470.805,205.813c-0.884-7.152-12.142-22.35-15.056-24.777c-2.912-2.422,0.962,42.757,4.85,51.016
				c3.901,8.26,11.171,18.468,11.664,19.924C1472.751,253.433,1471.77,213.588,1470.805,205.813z"/>
			<path fill="#F16735" d="M1498.803,129.486c1.494-31.719,1.937-55.206-18.27-81.633c-19.502-25.492-51.257-24.909-56.51-24.631
				c-5.123-0.278-36.189-0.861-55.683,24.631c-20.553,26.883-19.748,50.737-18.194,83.287c-4-0.382-15.123,4.974-13.608,9.325
				c1.752,5.076,12.603,45.993,16.367,40.282c0.689-1.044,1.09-3.296,1.286-6.277c2.947,22.017,10.22,41.509,11.244,48.71
				c1.647,11.467,7.818-65.545,50.429-67.18h17.146c42.6,1.635,48.784,78.647,50.422,67.18c1.019-7.135,8.237-26.351,11.178-48.133
				c0.224,1.87,0.57,3.3,1.071,4.064c3.769,5.709,14.625-35.208,16.374-40.286C1513.521,134.602,1503.081,129.433,1498.803,129.486z
				"/>
			<path fill="#F16735" d="M1498.803,129.486c1.494-31.719,1.937-55.206-18.27-81.633c-19.502-25.492-51.257-24.909-56.51-24.631
				c-5.123-0.278-36.189-0.861-55.683,24.631c-20.553,26.883-19.748,50.737-18.194,83.287c-4-0.382-15.123,4.974-13.608,9.325
				c1.752,5.076,12.603,45.993,16.367,40.282c0.689-1.044,1.09-3.296,1.286-6.277c2.947,22.017,10.22,41.509,11.244,48.71
				c1.647,11.467,7.818-65.545,50.429-67.18h17.146c42.6,1.635,48.784,78.647,50.422,67.18c1.019-7.135,8.237-26.351,11.178-48.133
				c0.224,1.87,0.57,3.3,1.071,4.064c3.769,5.709,14.625-35.208,16.374-40.286C1513.521,134.602,1503.081,129.433,1498.803,129.486z
				"/>
			<path fill="#F16735" d="M1434.363,343.298c7.775-11.664,82.602-42.272,146.238-27.206c-77.25,0.482-58.438,140.2-147.361,181.24
				C1428.379,470.61,1427.839,353.072,1434.363,343.298z"/>
			<path fill="#F16735" d="M1547.086,339.896c27.198,35.956,77.264,91.341,83.571,92.309c4.852-1.943,18.938-53.438-6.325-86.479
				C1605.997,321.76,1561.661,327.263,1547.086,339.896z"/>
			<path fill="#F16735" d="M1541.741,355.926c9.711,0.49,52.471,56.361,48.103,64.618c-4.377,8.267-72.879,16.04-80.169,15.55
				C1502.387,435.605,1530.41,355.368,1541.741,355.926z"/>
			<path fill="#F16735" d="M1593.232,414.238c61.221,51.49,14.576,135.545,27.216,176.357
				C1552.429,525.491,1605.381,443.382,1593.232,414.238z"/>
			<path fill="#F16735" d="M1408.786,513.346c-23.099-18.603-59.433-45.112-68.011-58.765c-18.662-11.754-28.46-5.346-80.165-14.605
				c-3.953,103.53,73.347,145.171,82.927,228.133C1366.828,655.906,1418.956,594.907,1408.786,513.346z"/>
			<path fill="#F16735" d="M1318.699,627.105c-3.928-0.396,0,62.549-1.126,70.522c-1.127,7.972,18.815-9.044,22.193-10.881
				C1343.141,684.905,1324.89,627.715,1318.699,627.105z"/>
			<path fill="#F16735" d="M1630.895,446.779c10.93,5.83,35.707,75.796,26.963,131.184
				C1648.384,499.986,1635.993,464.27,1630.895,446.779z"/>
			<path fill="#F16735" d="M1633.809,494.883c2.186,6.554,18.944,84.535,2.186,80.896
				C1625.793,570.675,1633.809,494.883,1633.809,494.883z"/>
			<path fill="#F16735" d="M1618.542,632.398c-1.543-7.694,12.574,8.211,29.246,6.481c16.675-1.743,56.517,113.546,66.222,129.384
				C1695.945,763.553,1621.578,647.467,1618.542,632.398z"/>
			<path fill="#F16735" d="M1635.783,587.277c-5.633,1.489-23.795,1.826,27.401,52.098
				C1667.865,643.972,1663.29,579.99,1635.783,587.277z"/>
			<path fill="#F16735" d="M1680.396,614.233c0.225,37.349,7.299,99.771,53.563,158.886
				C1735.581,725.317,1697.318,657.169,1680.396,614.233z"/>
			<path fill="#F16735" d="M1692.042,606.426c5.994-7.378,69.123,175.414,71.481,183.96c2.352,8.543-12.592,16.057-14.646,10.408
				C1746.822,795.144,1728.283,694.241,1692.042,606.426z"/>
			<path fill="#F16735" d="M1563.201,891.218c3.039,6.079,2.758,105.255-1.141,114.003c-4.856-23.319-18.85-53.635-14.969-63.349
				C1550.977,932.144,1559.319,883.45,1563.201,891.218z"/>
			<path fill="#F16735" d="M1506.199,924.271c3.292-9.044,34.041,21.867,37.013,33.147c6.785,25.742,17.588,71.397,4.962,151.094
				c-10.721,67.677-7.285,47.729-8.379,98.743c-3.279-43.361-14.592-66.461-17.969-78.822
				C1539.265,1090.718,1531.469,970.921,1506.199,924.271z"/>
			<path fill="#F16735" d="M1493.664,908.313c-2.266,12.438,49.587,128.855,15.958,224.59
				c-6.793,19.344-24.624,56.188-28.499,58.138c6.839-34.194,1.936-46.504,0-64.983
				C1472.168,1039.729,1484.542,924.271,1493.664,908.313z"/>
			<path fill="#F16735" d="M1440.189,878.699c0.974-5.147,39.151,18.562,39.801,27.334c3.412,46.738-17.985,81.871-22.809,188.11
				C1454.021,1005.005,1419.559,988.117,1440.189,878.699z"/>
			<path fill="#F16735" d="M1468.582,1026.881c0.746-7.975,6.593,102.507,5.623,112.234c-0.969,9.729,1.146,75.207-3.341,66.756
				C1451.48,1169.377,1461.739,1099.844,1468.582,1026.881z"/>
			<path fill="#F16735" d="M1508.204,1169.253c-0.702-6.843,11.664-15.562,13.608-11.664c1.951,3.881,24.291,151.113,24.291,171.511
				c0,20.407-30.121,77.244-33.032,76.267c-2.915-0.967-15.545-16.519-14.576-19.439
				C1498.734,1385.198,1517.67,1260.733,1508.204,1169.253z"/>
			<path fill="#F16735" d="M1500.438,1169.253c-1.954-8.483-45.661,97.648-49.553,130.7c-3.896,33.049-7.779,112.219,3.881,114.161
				c11.661,1.938,34.013-28.188,34.984-36.929C1490.343,1371.813,1507.021,1197.768,1500.438,1169.253z"/>
			<path fill="#F16735" d="M1510.598,1414.835c5.229,0,7.063-1.74,9.137,9.734c7.781,43.063-34.049,66.3-36.783,205.265
				c-0.227,11.654-7.895,10.298-7.775,6.8c2.532-76.228,11.507-134.716,17.153-155.42
				C1495.983,1467.811,1502.832,1414.835,1510.598,1414.835z"/>
			<path fill="#F16735" d="M1455.178,1438.584c-1.314-5.057-5.843-32.797-7.912-21.319c-7.789,43.06,12.989,74.214,15.723,213.183
				c0.229,11.654,3.274,1.65,3.156-1.854c-2.531-76.212-7.923-97.438-8.531-146.161
				C1457.39,1464.73,1458.83,1452.593,1455.178,1438.584z"/>
			<path fill="#F16735" d="M1331.379,1414.835c-5.229,0-7.062-1.74-9.132,9.734c-7.785,43.063,34.051,66.3,36.776,205.265
				c0.24,11.654,7.894,10.298,7.777,6.8c-2.531-76.228-11.506-134.716-17.152-155.42
				C1345.997,1467.811,1339.145,1414.835,1331.379,1414.835z"/>
			<path fill="#F16735" d="M1386.802,1438.584c1.316-5.057,5.84-32.797,7.913-21.319c7.779,43.06-12.993,74.214-15.723,213.183
				c-0.235,11.654-3.271,1.65-3.156-1.854c2.535-76.212,7.92-97.438,8.528-146.161
				C1384.587,1464.73,1383.146,1452.593,1386.802,1438.584z"/>
			<path fill="#F16735" d="M1467.386,1658.064c0-7.771-17.009,58.299-7.294,64.129c9.721,5.833,42.271,3.393,53.931,1.458
				c11.663-1.934-20.409-72.878-20.409-72.878s13.121,61.218-10.197,62.679C1477.599,1713.813,1467.386,1671.657,1467.386,1658.064z
				"/>
			<path fill="#F16735" d="M1759.665,809.507c-3.337,1.675-2.532,24.752-2.411,32.841c0.118,8.092,12.684,55.425,24.359,53.596
				c11.674-1.849,16.158-10.352,18.397-15.217c2.23-4.868,16.665-13.75,18.879-18.27c2.216-4.516-20.343-40.08-24.36-42.635
				c-3.993-2.564-6.522-11.758-13.434-14.033C1778.279,804.875,1761.646,808.501,1759.665,809.507z"/>
			<path fill="#F16735" d="M1797.598,817.302c-0.433-2.93,5.154-5.127,7.159-4.187c1.992,0.937,33.473,19.125,36.701,21.763
				c10.108,8.214,32.521,15.987,31.132,20.571c-3.169,10.482-28.96,3.359-39.983-5.706
				C1821.574,840.674,1798.764,825.168,1797.598,817.302z"/>
			<path fill="#F16735" d="M1825.814,869.407c-2.552,0.415-7.266,1.514-6.686,7.275c0.569,5.759,20.753,53.179,25.349,57.853
				c4.585,4.684,7.557-0.775,6.104-8.744C1849.129,917.806,1828.71,868.947,1825.814,869.407z"/>
			<path fill="#F16735" d="M1812.261,881.8c-2.073,1.744-4.713,4.952-6.107,8.751c-1.393,3.807,23.97,65.587,27.766,67.012
				c3.822,1.373,6.961-1.918,6.725-7.641C1840.434,944.19,1814.567,879.859,1812.261,881.8z"/>
			<path fill="#F16735" d="M1799.984,894.339c-2.986,1.183-5.299,3.472-5.599,7.017c-0.308,3.544,17.007,55.344,25.337,53.932
				c8.325-1.432-0.367-16.462-1.515-19.768C1817.069,932.216,1801.466,893.753,1799.984,894.339z"/>
			<path fill="#F16735" d="M1776.645,901.946c-0.475-2.979,7.605,2.794,9.133,5.775c1.532,3,12.537,31.486,10.063,32.275
				C1787.048,942.806,1778.729,914.969,1776.645,901.946z"/>
			<path fill="#F16735" d="M1227.474,632.398c1.55-7.694-12.581,8.211-29.245,6.481c-16.676-1.743-56.514,113.546-66.223,129.384
				C1150.073,763.553,1224.438,647.467,1227.474,632.398z"/>
			<path fill="#F16735" d="M1210.232,587.277c5.641,1.489,23.795,1.826-27.406,52.098
				C1178.15,643.972,1182.723,579.99,1210.232,587.277z"/>
			<path fill="#F16735" d="M1165.621,614.233c-0.228,37.349-7.309,99.771-53.568,158.886
				C1110.431,725.317,1148.697,657.169,1165.621,614.233z"/>
			<path fill="#F16735" d="M1153.977,606.426c-5.989-7.378-69.133,175.414-71.484,183.96c-2.354,8.543,12.595,16.057,14.642,10.408
				C1099.193,795.144,1117.729,694.241,1153.977,606.426z"/>
			<path fill="#F16735" d="M1084.637,809.507c3.332,1.675,2.532,24.752,2.408,32.841c-0.122,8.092-12.683,55.425-24.363,53.596
				c-11.673-1.849-16.16-10.352-18.399-15.217c-2.226-4.868-16.662-13.75-18.88-18.27c-2.207-4.516,20.351-40.08,24.361-42.635
				c3.996-2.564,6.528-11.758,13.439-14.033C1066.014,804.875,1082.652,808.501,1084.637,809.507z"/>
			<path fill="#F16735" d="M1046.698,817.302c0.433-2.93-5.151-5.127-7.153-4.187c-1.998,0.937-33.471,19.125-36.71,21.763
				c-10.102,8.214-32.521,15.987-31.13,20.571c3.17,10.482,28.967,3.359,39.989-5.706
				C1022.727,840.674,1045.535,825.168,1046.698,817.302z"/>
			<path fill="#F16735" d="M1018.484,869.407c2.555,0.415,7.265,1.514,6.679,7.275c-0.558,5.759-20.75,53.179-25.349,57.853
				c-4.579,4.684-7.551-0.775-6.1-8.744C995.167,917.806,1015.596,868.947,1018.484,869.407z"/>
			<path fill="#F16735" d="M1032.031,881.8c2.072,1.744,4.717,4.952,6.107,8.751c1.398,3.807-23.969,65.587-27.756,67.012
				c-3.828,1.373-6.97-1.918-6.732-7.641C1003.866,944.19,1029.729,879.859,1032.031,881.8z"/>
			<path fill="#F16735" d="M1044.314,894.339c2.982,1.183,5.299,3.472,5.601,7.017c0.311,3.544-17.006,55.344-25.346,53.932
				c-8.319-1.432,0.374-16.462,1.522-19.768C1027.232,932.216,1042.83,893.753,1044.314,894.339z"/>
			<path fill="#F16735" d="M1067.654,901.946c0.479-2.979-7.605,2.794-9.135,5.775c-1.526,3-12.531,31.486-10.063,32.275
				C1057.255,942.806,1065.57,914.969,1067.654,901.946z"/>
			<path fill="#F16735" d="M1404.793,612.361c0,0-39.075,59.074-51.275,69.055c-10.344,8.465,44.771,62.798,49.91,72.175
				C1408.569,762.962,1411.989,624.549,1404.793,612.361z"/>
			<path fill="#F16735" d="M1458.991,742.418c8.737-17.491,37.962-30.583,55.452-23.291c17.483,7.286,28.953,49.458,28.229,76.423
				C1535.383,770.77,1507.094,751.161,1458.991,742.418z"/>
			<path fill="#F16735" d="M1425.713,765.71c11.664-5.835,117.751,0.278,127.228,63.685c2.184,14.568-7.292,99.112-16.034,99.84
				c-1.991-40.3-85.51-31.648-111.192-90.322C1424.26,822.145,1424.26,776.637,1425.713,765.71z"/>
			<path fill="#F16735" d="M1431.444,513.346c23.103-18.603,59.437-45.112,68.015-58.765c18.662-11.754,28.457-5.346,80.164-14.605
				c3.957,103.53-73.349,145.171-82.922,228.133C1473.406,655.906,1421.281,594.907,1431.444,513.346z"/>
			<path fill="#F16735" d="M1521.534,627.105c3.928-0.396,0,62.549,1.128,70.522c1.126,7.972-18.817-9.044-22.195-10.881
				C1497.094,684.905,1515.345,627.715,1521.534,627.105z"/>
			<path fill="#F16735" d="M1435.439,612.361c0,0,39.076,59.074,51.277,69.055c10.348,8.465-44.771,62.798-49.911,72.175
				C1431.661,762.962,1428.245,624.549,1435.439,612.361z"/>
		</g>
	</g>
</g>
<ellipse display="none" fill="#F16736" cx="307.45" cy="355.997" rx="40.329" ry="36.79"/>
</svg>
